<?xml version="1.0" standalone="no"?>
<!DOCTYPE svg PUBLIC "-//W3C//DTD SVG 20010904//EN"
 "http://www.w3.org/TR/2001/REC-SVG-20010904/DTD/svg10.dtd">
<svg version="1.0" xmlns="http://www.w3.org/2000/svg"
 width="300.000000pt" height="298.000000pt" viewBox="0 0 300.000000 298.000000"
 preserveAspectRatio="xMidYMid meet">
<metadata>
Created by potrace 1.10, written by Peter Selinger 2001-2011
</metadata>
<g transform="translate(0.000000,298.000000) scale(0.100000,-0.100000)"
fill="#000000" stroke="none">
<path d="M1340 2720 c-305 -35 -546 -148 -754 -355 -142 -143 -236 -290 -236
-372 0 -39 5 -51 39 -84 35 -36 43 -39 93 -39 71 0 93 17 153 121 67 114 212
258 330 327 134 79 275 121 428 128 70 4 155 2 199 -5 244 -35 488 -183 634
-387 78 -109 153 -286 166 -394 l3 -25 -1025 -5 c-828 -4 -1029 -8 -1048 -18
-25 -14 -61 -83 -62 -116 0 -11 9 -38 20 -61 39 -80 -48 -75 1193 -75 1238 0
1150 -5 1190 74 19 36 20 46 9 170 -39 475 -355 886 -807 1049 -152 54 -379
83 -525 67z"/>
<path d="M424 1121 c-78 -35 -94 -120 -43 -217 146 -275 385 -486 669 -588
156 -57 231 -69 420 -68 235 0 365 29 558 126 174 88 305 197 421 351 162 215
184 341 71 400 -68 35 -141 7 -186 -72 -92 -163 -182 -272 -289 -348 -140
-100 -261 -152 -419 -180 -118 -20 -205 -19 -325 4 -297 58 -537 236 -679 505
-29 56 -43 72 -76 87 -51 23 -71 23 -122 0z"/>
</g>
</svg>
