<?xml version="1.0" standalone="no"?>
<!DOCTYPE svg PUBLIC "-//W3C//DTD SVG 20010904//EN"
 "http://www.w3.org/TR/2001/REC-SVG-20010904/DTD/svg10.dtd">
<svg version="1.0" xmlns="http://www.w3.org/2000/svg"
 width="318.000000pt" height="345.000000pt" viewBox="0 0 318.000000 345.000000"
 preserveAspectRatio="xMidYMid meet">
<metadata>
Created by potrace 1.10, written by Peter Selinger 2001-2011
</metadata>
<g transform="translate(0.000000,345.000000) scale(0.100000,-0.100000)"
fill="#000000" stroke="none">
<path d="M865 3175 c-162 -34 -297 -83 -452 -163 -62 -32 -143 -100 -143 -119
0 -13 108 -39 195 -48 158 -17 323 -69 514 -162 125 -61 269 -153 689 -442
127 -88 337 -196 456 -236 202 -68 403 -74 596 -18 176 51 248 86 272 133 19
37 24 787 5 850 l-13 45 -54 -1 c-39 0 -91 -14 -175 -45 l-120 -44 -200 0
c-236 1 -278 9 -585 111 -217 73 -372 115 -506 138 -108 19 -391 20 -479 1z"/>
<path d="M240 2816 c-28 -10 -37 -21 -47 -52 -16 -54 -18 -967 -2 -1015 15
-42 47 -72 114 -104 47 -22 88 -36 235 -81 54 -17 369 -64 425 -64 76 0 320
41 360 60 22 11 58 38 80 61 38 41 39 41 27 85 -17 63 -15 72 18 89 17 9 30
22 30 29 0 7 7 19 15 26 52 43 -24 205 -196 420 -112 140 -143 171 -264 261
-206 153 -393 238 -610 280 -114 22 -136 22 -185 5z"/>
<path d="M1970 1880 c-128 -23 -150 -30 -183 -54 -43 -32 -67 -77 -67 -128 0
-29 -6 -50 -16 -59 -30 -25 -56 -90 -51 -126 9 -54 53 -140 134 -263 136 -206
394 -439 603 -545 64 -33 261 -100 364 -124 82 -20 179 -20 217 0 9 5 22 28
28 53 15 61 15 935 0 1006 -9 44 -17 56 -55 83 -89 62 -274 124 -490 161 -120
21 -358 19 -484 -4z"/>
<path d="M545 1434 c-90 -17 -207 -55 -277 -90 -86 -43 -83 -26 -86 -469 -3
-373 3 -484 27 -499 16 -10 108 13 226 56 l120 43 200 0 c237 -1 268 -7 595
-115 359 -119 514 -150 740 -150 147 0 239 11 345 41 192 54 360 134 442 212
l53 50 -87 22 c-49 12 -113 23 -143 23 -52 2 -254 52 -350 87 -72 27 -207 92
-253 122 -23 15 -55 35 -71 43 -16 8 -86 54 -155 102 -437 303 -496 341 -631
409 -171 85 -301 118 -490 124 -84 3 -151 -1 -205 -11z"/>
</g>
</svg>
