<?xml version="1.0" encoding="UTF-8" standalone="no"?>
<svg
   xmlns:dc="http://purl.org/dc/elements/1.1/"
   xmlns:cc="http://creativecommons.org/ns#"
   xmlns:rdf="http://www.w3.org/1999/02/22-rdf-syntax-ns#"
   xmlns:svg="http://www.w3.org/2000/svg"
   xmlns="http://www.w3.org/2000/svg"
   xmlns:sodipodi="http://sodipodi.sourceforge.net/DTD/sodipodi-0.dtd"
   xmlns:inkscape="http://www.inkscape.org/namespaces/inkscape"
   viewBox="0 0 401.49866 382.27454"
   height="382.27454"
   width="401.49866"
   xml:space="preserve"
   id="svg2"
   version="1.1"
   inkscape:version="0.91 r13725"
   sodipodi:docname="logo-apsystems2.svg"><sodipodi:namedview
     pagecolor="#ffffff"
     bordercolor="#666666"
     borderopacity="1"
     objecttolerance="10"
     gridtolerance="10"
     guidetolerance="10"
     inkscape:pageopacity="0"
     inkscape:pageshadow="2"
     inkscape:window-width="921"
     inkscape:window-height="741"
     id="namedview19"
     showgrid="false"
     fit-margin-top="0"
     fit-margin-left="0"
     fit-margin-right="0"
     fit-margin-bottom="0"
     inkscape:zoom="0.14460784"
     inkscape:cx="202.92667"
     inkscape:cy="71.234685"
     inkscape:window-x="0"
     inkscape:window-y="0"
     inkscape:window-maximized="0"
     inkscape:current-layer="svg2" /><metadata
     id="metadata8"><rdf:RDF><cc:Work
         rdf:about=""><dc:format>image/svg+xml</dc:format><dc:type
           rdf:resource="http://purl.org/dc/dcmitype/StillImage" /><dc:title></dc:title></cc:Work></rdf:RDF></metadata><defs
     id="defs6" /><g
     transform="matrix(1.3333333,0,0,-1.3333333,-325.07333,1127.0398)"
     id="g10"><g
       transform="scale(0.1,0.1)"
       id="g12"><path
         id="path14"
         style="fill:#f47216;fill-opacity:1;fill-rule:nonzero;stroke:none"
         d="m 4324.88,8381.94 c 72.77,-282.99 -137.15,-538.4 -414.01,-524.99 -245.16,11.84 -441.66,234.5 -379.89,520.72 204.41,101.18 583.84,97.74 793.9,4.27"
         inkscape:connector-curvature="0" /><path
         id="path16"
         style="fill:#f47216;fill-opacity:1;fill-rule:nonzero;stroke:none"
         d="m 4726.11,8117.29 c 3.63,0.8 4.03,-1.65 4.26,-4.26 171.28,-179.14 311.59,-429.62 311.59,-776.83 0,-342.58 -142.92,-594.14 -315.85,-768.3 -71.78,315.22 -258.26,515.75 -546.35,614.64 l 0,315.87 c 288.3,100.11 476.93,299.9 546.35,618.88"
         inkscape:connector-curvature="0" /><path
         id="path18"
         style="fill:#f47216;fill-opacity:1;fill-rule:nonzero;stroke:none"
         d="m 3680.37,7498.41 0,-315.87 c -288.91,-98.05 -475.07,-298.9 -546.34,-614.64 -184.55,179.13 -319.43,456.32 -320.13,772.57 -0.54,251.79 84.49,453.26 187.81,610.37 37.99,57.76 75.99,114.3 128.05,162.19 78.5,-309.9 259.76,-517.05 550.61,-614.62"
         inkscape:connector-curvature="0" /><path
         id="path20"
         style="fill:#f47216;fill-opacity:1;fill-rule:nonzero;stroke:none"
         d="m 4324.88,6299.01 c -211.24,-93.51 -578.4,-93.37 -789.63,0 -76.38,298 151.68,546.94 426.84,524.99 239.22,-19.07 433.13,-246.62 362.79,-524.99"
         inkscape:connector-curvature="0" /><path
         id="path22"
         style="fill:#4e4e55;fill-opacity:1;fill-rule:nonzero;stroke:none"
         d="m 2615.15,5825.18 60.71,180.32 55.38,-180.32 z m -56.27,-167.42 30.21,84.74 171.77,0 30.21,-84.74 135.34,0 -172.36,432.47 -147.19,0 -168.81,-432.47 z m 533.97,351.84 53.9,0 c 26.26,0 45.46,-4.45 57.61,-13.34 12.14,-8.9 18.21,-23.02 18.21,-42.37 0,-19.74 -6.17,-34.3 -18.51,-43.68 -12.34,-9.39 -31.44,-14.08 -57.31,-14.08 l -53.9,0 z m 0,-351.84 0,153.64 87.37,0 c 51.93,0 92.4,12.36 121.43,37.09 29.02,24.72 43.53,59.27 43.53,103.64 0,45.35 -14.66,79.7 -43.98,103.06 -29.32,23.36 -72.51,35.04 -129.57,35.04 l -200.2,0 0,-432.47 121.42,0"
         inkscape:connector-curvature="0" /><path
         id="path24"
         style="fill:#f47216;fill-opacity:1;fill-rule:nonzero;stroke:none"
         d="m 4092.26,5832.06 c -4.26,1.05 -10.44,2.54 -18.58,4.47 -35.03,8.06 -52.55,18.4 -52.55,31.01 0,8.23 3.5,14.88 10.49,19.96 6.98,5.07 16.23,7.61 27.73,7.61 11.32,0 20.11,-2.58 26.39,-7.74 6.29,-5.16 10.14,-13.01 11.55,-23.51 l 69.53,0 0,2.1 c 0,23.12 -9.07,41.45 -27.2,55.04 -18.13,13.56 -42.77,20.36 -73.9,20.36 -34.69,0 -62.63,-7.72 -83.86,-23.12 -21.22,-15.43 -31.84,-35.21 -31.84,-59.38 0,-19.96 6.38,-35.94 19.11,-47.93 12.73,-12.01 34.13,-22.04 64.21,-30.08 4.6,-1.24 11.06,-2.9 19.37,-5 33.61,-8.4 50.43,-19.96 50.43,-34.68 0,-9.63 -3.59,-17.17 -10.76,-22.6 -7.16,-5.43 -17.11,-8.14 -29.84,-8.14 -14.69,0 -25.58,2.9 -32.65,8.67 -7.07,5.78 -10.88,14.71 -11.4,26.79 l -73.78,0 c 0.53,-28.19 10.76,-49.86 30.66,-65.01 19.89,-15.15 48.07,-22.73 84.51,-22.73 34.5,0 62.94,8.97 85.31,26.94 22.37,17.95 33.58,40.41 33.58,67.38 0,20.66 -6.69,37.21 -20.04,49.65 -13.37,12.43 -35.53,22.42 -66.47,29.94"
         inkscape:connector-curvature="0" /><path
         id="path26"
         style="fill:#f47216;fill-opacity:1;fill-rule:nonzero;stroke:none"
         d="m 3782.84,5758.24 -59.17,176.54 -87.31,0 103.23,-270.05 -26.05,-78.99 79.92,0 24.41,78.99 104.28,270.05 -79.34,0 -59.97,-176.54"
         inkscape:connector-curvature="0" /><path
         id="path28"
         style="fill:#f47216;fill-opacity:1;fill-rule:nonzero;stroke:none"
         d="m 3591.39,5802.12 c -13.35,12.42 -35.51,22.42 -66.47,29.94 -4.25,1.05 -10.44,2.54 -18.58,4.47 -35.03,8.06 -52.54,18.4 -52.54,31.01 0,8.23 3.49,14.88 10.49,19.96 6.97,5.07 16.23,7.61 27.72,7.61 11.33,0 20.13,-2.59 26.41,-7.74 6.27,-5.17 10.12,-13.01 11.55,-23.52 l 69.51,0 0,2.11 c 0,23.11 -9.06,41.45 -27.2,55.03 -18.13,13.57 -42.76,20.36 -73.89,20.36 -34.68,0 -62.64,-7.72 -83.86,-23.11 -21.23,-15.43 -31.85,-35.22 -31.85,-59.38 0,-19.96 6.38,-35.95 19.11,-47.94 12.74,-12 34.13,-22.03 64.21,-30.07 4.61,-1.24 11.07,-2.9 19.38,-5 33.62,-8.4 50.42,-19.96 50.42,-34.68 0,-9.63 -3.59,-17.17 -10.76,-22.6 -7.16,-5.43 -17.11,-8.14 -29.84,-8.14 -14.68,0 -25.56,2.89 -32.65,8.67 -7.07,5.78 -10.87,14.71 -11.4,26.79 l -73.77,0 c 0.52,-28.19 10.75,-49.86 30.65,-65.01 19.9,-15.15 48.07,-22.73 84.51,-22.73 34.5,0 62.94,8.97 85.31,26.94 22.39,17.95 33.58,40.41 33.58,67.38 0,20.66 -6.69,37.21 -20.04,49.65"
         inkscape:connector-curvature="0" /><path
         id="path30"
         style="fill:#f47216;fill-opacity:1;fill-rule:nonzero;stroke:none"
         d="m 4560.6,5941.36 c -41.74,0 -74.04,-12.58 -96.85,-37.71 -22.83,-25.12 -34.23,-60.63 -34.23,-106.52 0,-43.6 11.14,-77.58 33.43,-101.93 22.3,-24.34 53.51,-36.52 93.68,-36.52 34.5,0 62.04,7.97 82.65,23.91 20.61,15.93 32.07,38.18 34.36,66.73 l -70.31,0 c -3.01,-12.97 -8.37,-22.59 -16.06,-28.9 -7.68,-6.3 -18.08,-9.46 -31.17,-9.46 -16.64,0 -29.11,5.96 -37.43,17.87 -8.31,11.9 -12.64,29.94 -13,54.11 l 175.94,0.26 c 0.17,1.94 0.31,4.12 0.4,6.58 0.08,2.44 0.13,6.12 0.13,11.03 0,44.82 -10.57,79.47 -31.71,103.9 -21.15,24.43 -51.09,36.65 -89.83,36.65 m -52.81,-108.24 c 1.07,18.39 5.81,32.75 14.21,43.09 8.4,10.33 19.41,15.5 33.03,15.5 15.04,0 26.41,-4.86 34.1,-14.59 7.69,-9.72 11.71,-24.38 12.07,-44 l -93.41,0"
         inkscape:connector-curvature="0" /><path
         id="path32"
         style="fill:#f47216;fill-opacity:1;fill-rule:nonzero;stroke:none"
         d="m 4329.74,6015.96 -78.8,-28.9 0,-52.28 -51.76,0 0,-53.34 51.76,0 0,-146.32 c 0,-26.44 5.69,-45.67 17.11,-57.66 11.4,-11.99 29.58,-18 54.52,-18 11.33,0 22.73,0.67 34.25,1.98 11.49,1.3 23.25,3.28 35.29,5.91 l 0,55.43 c -6.02,-1.23 -11.78,-2.16 -17.25,-2.76 -5.5,-0.62 -10.8,-0.93 -15.93,-0.93 -9.56,0 -16.89,2.63 -22.03,7.89 -5.12,5.25 -7.69,12.88 -7.69,22.86 l 0,131.6 63.42,0 0,53.34 -62.89,0 0,81.18"
         inkscape:connector-curvature="0" /><path
         id="path34"
         style="fill:#f47216;fill-opacity:1;fill-rule:nonzero;stroke:none"
         d="m 5429.25,5802.12 c -13.35,12.42 -35.51,22.42 -66.47,29.94 -4.24,1.05 -10.43,2.54 -18.57,4.47 -35.02,8.06 -52.54,18.4 -52.54,31.01 0,8.23 3.5,14.88 10.47,19.96 7,5.07 16.23,7.61 27.75,7.61 11.31,0 20.11,-2.59 26.39,-7.74 6.28,-5.17 10.14,-13.01 11.54,-23.52 l 69.54,0 0,2.11 c 0,23.11 -9.07,41.45 -27.2,55.03 -18.14,13.57 -42.78,20.36 -73.91,20.36 -34.68,0 -62.62,-7.72 -83.85,-23.11 -21.23,-15.43 -31.84,-35.22 -31.84,-59.38 0,-19.96 6.36,-35.95 19.09,-47.94 12.75,-12 34.15,-22.03 64.23,-30.07 4.59,-1.24 11.05,-2.9 19.37,-5 33.6,-8.4 50.41,-19.96 50.41,-34.68 0,-9.63 -3.58,-17.17 -10.74,-22.6 -7.16,-5.43 -17.11,-8.14 -29.86,-8.14 -14.69,0 -25.56,2.89 -32.63,8.67 -7.09,5.78 -10.88,14.71 -11.42,26.79 l -73.76,0 c 0.53,-28.19 10.74,-49.86 30.65,-65.01 19.9,-15.15 48.06,-22.73 84.51,-22.73 34.51,0 62.93,8.97 85.32,26.94 22.37,17.95 33.56,40.41 33.56,67.38 0,20.66 -6.67,37.21 -20.04,49.65"
         inkscape:connector-curvature="0" /><path
         id="path36"
         style="fill:#f47216;fill-opacity:1;fill-rule:nonzero;stroke:none"
         d="m 5075.66,5941.36 c -21.92,0 -40.06,-4.25 -54.38,-12.75 -14.35,-8.49 -25.94,-21.85 -34.77,-40.06 -6.55,17.16 -16.9,30.25 -31.05,39.27 -14.16,9.02 -31.49,13.54 -52.01,13.54 -20.34,0 -37.55,-3.77 -51.61,-11.29 -14.07,-7.54 -26.23,-19.45 -36.49,-35.75 l -2.12,40.47 -75.1,0 c 0.71,-7.88 1.24,-16.07 1.6,-24.56 0.35,-8.49 0.52,-17.56 0.52,-27.2 l 0,-218.3 78.82,0 0,166.3 c 0,16.27 4.45,29.24 13.4,38.86 8.92,9.64 21.01,14.46 36.22,14.46 15.39,0 26.53,-4.43 33.43,-13.27 6.9,-8.84 10.35,-23.25 10.35,-43.21 l 0,-163.14 78.82,0 0,166.3 c 0,16.1 4.55,29.02 13.66,38.74 9.12,9.72 21.28,14.58 36.49,14.58 15.75,0 27.1,-4.38 34.1,-13.14 6.97,-8.76 10.47,-23.21 10.47,-43.34 l 0,-163.14 78.82,0 0,173.91 c 0,34.67 -7.35,60.47 -22.02,77.36 -14.7,16.9 -37.07,25.36 -67.15,25.36"
         inkscape:connector-curvature="0" /></g></g></svg>