<?xml version="1.0" standalone="no"?>
<!DOCTYPE svg PUBLIC "-//W3C//DTD SVG 20010904//EN"
 "http://www.w3.org/TR/2001/REC-SVG-20010904/DTD/svg10.dtd">
<svg version="1.0" xmlns="http://www.w3.org/2000/svg"
 width="300.000000pt" height="300.000000pt" viewBox="0 0 300.000000 300.000000"
 preserveAspectRatio="xMidYMid meet">
<metadata>
Created by potrace 1.10, written by Peter Selinger 2001-2011
</metadata>
<g transform="translate(0.000000,300.000000) scale(0.100000,-0.100000)"
fill="#000000" stroke="none">
<path d="M902 2067 c-314 -314 -572 -577 -572 -582 0 -15 1144 -1155 1159
-1155 6 0 152 138 324 307 172 170 376 371 455 447 78 77 142 143 142 146 0 4
-70 76 -156 161 -85 85 -285 283 -443 440 -158 158 -298 290 -311 294 -20 6
-60 -30 -341 -311 -176 -176 -319 -323 -319 -329 0 -15 635 -645 649 -645 19
0 391 375 391 394 0 16 -348 377 -381 396 -13 8 -31 -5 -83 -58 -36 -37 -66
-74 -66 -82 0 -8 54 -69 120 -134 84 -82 119 -124 115 -135 -6 -19 -83 -81
-100 -81 -17 0 -345 332 -345 350 0 18 328 350 346 350 12 0 614 -598 614
-610 0 -5 -91 -97 -202 -206 -112 -110 -247 -243 -301 -296 -53 -54 -103 -98
-110 -98 -18 0 -857 842 -857 860 0 15 829 851 851 859 6 2 205 -191 443 -428
l431 -431 142 0 c78 0 144 4 147 8 5 9 -1060 1074 -1115 1115 -20 15 -40 27
-45 27 -5 0 -267 -258 -582 -573z"/>
</g>
</svg>
