<?xml version="1.0" standalone="no"?>
<!DOCTYPE svg PUBLIC "-//W3C//DTD SVG 20010904//EN" "http://www.w3.org/TR/2001/REC-SVG-20010904/DTD/svg10.dtd">
<svg version="1.0" xmlns="http://www.w3.org/2000/svg"
  width="137.000000pt" height="144.000000pt" viewBox="0 0 137.000000 144.000000"
  preserveAspectRatio="xMidYMid meet">

  <g transform="translate(0.000000,144.000000) scale(0.100000,-0.100000)"
    fill="#000000" stroke="none">
    <path d="M540 1284 c-97 -25 -179 -73 -250 -144 -210 -209 -213 -533 -7 -748
106 -110 230 -162 387 -162 104 0 188 23 274 75 32 19 60 35 62 35 2 0 4 -25
4 -55 l0 -55 95 0 95 0 0 265 0 265 -265 0 -265 0 0 -100 0 -100 130 0 c74 0
130 -4 130 -9 0 -12 -76 -74 -115 -94 -125 -63 -289 -32 -392 75 -171 176 -95
472 141 551 109 37 216 16 328 -65 16 -11 26 -4 85 54 l67 67 -28 30 c-40 41
-150 98 -227 116 -80 18 -177 18 -249 -1z" />
  </g>
</svg>