<?xml version="1.0" standalone="no"?>
<!DOCTYPE svg PUBLIC "-//W3C//DTD SVG 20010904//EN"
 "http://www.w3.org/TR/2001/REC-SVG-20010904/DTD/svg10.dtd">
<svg version="1.0" xmlns="http://www.w3.org/2000/svg"
 width="300.000000pt" height="79.000000pt" viewBox="0 0 300.000000 79.000000"
 preserveAspectRatio="xMidYMid meet">
<metadata>
Created by potrace 1.10, written by Peter Selinger 2001-2011
</metadata>
<g transform="translate(0.000000,79.000000) scale(0.100000,-0.100000)"
fill="#000000" stroke="none">
<path d="M0 395 l0 -395 147 0 147 0 -36 38 c-43 45 -65 87 -74 140 l-6 40 68
6 c38 4 88 8 110 11 41 4 42 4 59 -40 23 -61 56 -85 115 -85 63 0 100 28 100
75 0 48 -29 66 -177 109 -70 21 -143 47 -161 58 -59 36 -102 139 -87 208 9 43
68 106 125 135 132 67 357 53 439 -27 l31 -30 0 76 0 76 -400 0 -400 0 0 -395z"/>
<path d="M850 395 l0 -395 39 0 38 0 139 370 139 370 131 0 131 0 91 -237 91
-238 1 263 0 262 -400 0 -400 0 0 -395z"/>
<path d="M1710 395 l0 -395 156 0 157 0 -26 20 c-30 24 -72 108 -82 162 -7 43
-11 41 118 58 108 14 104 15 111 -30 9 -55 39 -84 79 -76 62 13 62 9 65 321
l3 285 109 0 110 0 0 25 0 25 -400 0 -400 0 0 -395z"/>
<path d="M2570 395 l0 -395 215 0 215 0 0 395 0 395 -215 0 -215 0 0 -395z"/>
<path d="M454 580 c-22 -9 -34 -35 -26 -58 7 -21 52 -39 157 -61 55 -12 126
-35 157 -51 l58 -30 0 64 0 63 -89 -5 c-83 -4 -89 -3 -95 16 -4 11 -18 32 -31
46 -19 21 -33 26 -67 25 -24 0 -53 -4 -64 -9z"/>
<path d="M1301 423 c-18 -59 -36 -116 -38 -125 -5 -16 3 -18 71 -18 42 0 76 3
76 8 0 4 -17 60 -38 125 l-37 118 -34 -108z"/>
<path d="M2500 105 c0 -9 -19 -36 -41 -60 l-42 -45 47 0 46 0 0 60 c0 33 -2
60 -5 60 -3 0 -5 -7 -5 -15z"/>
<path d="M1191 69 c-7 -23 -15 -47 -18 -55 -4 -12 23 -14 162 -14 141 0 166 2
162 14 -3 8 -11 33 -17 55 l-11 41 -133 0 -133 0 -12 -41z"/>
<path d="M765 20 c-18 -20 -17 -20 8 -20 20 0 27 5 27 20 0 11 -4 20 -8 20 -5
0 -17 -9 -27 -20z"/>
</g>
</svg>
