<?xml version="1.0" standalone="no"?>
<!DOCTYPE svg PUBLIC "-//W3C//DTD SVG 20010904//EN"
 "http://www.w3.org/TR/2001/REC-SVG-20010904/DTD/svg10.dtd">
<svg version="1.0" xmlns="http://www.w3.org/2000/svg"
 width="300.000000pt" height="238.000000pt" viewBox="0 0 300.000000 238.000000"
 preserveAspectRatio="xMidYMid meet">
<metadata>
Created by potrace 1.10, written by Peter Selinger 2001-2011
</metadata>
<g transform="translate(0.000000,238.000000) scale(0.100000,-0.100000)"
fill="#000000" stroke="none">
<path d="M1217 2253 c-30 -54 -102 -186 -160 -294 -59 -109 -142 -262 -185
-340 -43 -79 -101 -184 -127 -234 -27 -49 -69 -128 -95 -175 -25 -47 -79 -146
-120 -220 -40 -74 -126 -232 -190 -350 -64 -118 -152 -280 -195 -360 -43 -80
-89 -162 -102 -182 -13 -21 -23 -42 -23 -48 0 -16 516 -14 531 3 6 6 104 194
219 417 120 233 214 405 221 405 9 0 60 -135 150 -399 75 -219 141 -407 148
-417 10 -18 27 -19 226 -19 170 0 215 3 215 13 0 14 -18 68 -160 477 -182 527
-270 789 -270 808 0 38 90 201 138 250 60 61 111 85 193 90 52 3 76 -1 116
-18 69 -29 164 -129 237 -250 125 -204 253 -343 377 -410 60 -33 70 -35 154
-35 79 0 97 3 143 27 142 73 243 203 314 403 15 44 28 92 28 107 0 27 -1 28
-59 28 l-59 0 -26 -67 c-63 -163 -151 -284 -238 -327 -66 -33 -115 -33 -180 0
-101 51 -187 144 -303 324 -120 189 -224 297 -332 348 -48 22 -71 27 -133 26
-70 -1 -91 -6 -192 -49 -11 -4 -18 -3 -18 5 0 6 56 129 125 273 69 143 123
267 121 274 -4 10 -53 13 -220 13 l-215 0 -54 -97z"/>
</g>
</svg>
