<?xml version="1.0" encoding="UTF-8"?>
<svg xmlns="http://www.w3.org/2000/svg" xmlns:xlink="http://www.w3.org/1999/xlink" viewBox="0 0 50 50" version="1.1" width="50px" height="50px">
<g id="surface1">
<path style=" " d="M 12 5 C 8.832031 5 6.4375 5.519531 4.75 6.375 C 3.0625 7.230469 2 8.527344 2 10 L 2 42 C 2 43.644531 3.355469 45 5 45 L 45 45 C 46.644531 45 48 43.644531 48 42 L 48 10 C 48 8.527344 46.9375 7.230469 45.25 6.375 C 43.5625 5.519531 41.167969 5 38 5 Z M 12 7 L 38 7 C 40.949219 7 43.0625 7.503906 44.34375 8.15625 C 45.625 8.808594 46 9.496094 46 10 L 46 42 C 46 42.566406 45.566406 43 45 43 L 42 43 L 42 37 C 42 34.800781 40.199219 33 38 33 L 12 33 C 9.800781 33 8 34.800781 8 37 L 8 43 L 5 43 C 4.433594 43 4 42.566406 4 42 L 4 10 C 4 9.496094 4.375 8.808594 5.65625 8.15625 C 6.9375 7.503906 9.050781 7 12 7 Z M 10.8125 12 C 10.335938 12.089844 9.992188 12.511719 10 13 L 10 20 C 10 20.550781 10.449219 21 11 21 L 28 21 C 28.550781 21 29 20.550781 29 20 L 29 13 C 29 12.449219 28.550781 12 28 12 L 11 12 C 10.96875 12 10.9375 12 10.90625 12 C 10.875 12 10.84375 12 10.8125 12 Z M 12 14 L 27 14 L 27 19 L 12 19 Z M 37.5 16 C 34.472656 16 32 18.472656 32 21.5 C 32 24.527344 34.472656 27 37.5 27 C 40.527344 27 43 24.527344 43 21.5 C 43 18.472656 40.527344 16 37.5 16 Z M 37.5 18 C 39.445313 18 41 19.554688 41 21.5 C 41 23.445313 39.445313 25 37.5 25 C 35.554688 25 34 23.445313 34 21.5 C 34 19.554688 35.554688 18 37.5 18 Z M 37.5 20 C 36.671875 20 36 20.671875 36 21.5 C 36 22.328125 36.671875 23 37.5 23 C 38.328125 23 39 22.328125 39 21.5 C 39 20.671875 38.328125 20 37.5 20 Z M 23.5 25 C 22.671875 25 22 25.671875 22 26.5 C 22 27.328125 22.671875 28 23.5 28 C 24.328125 28 25 27.328125 25 26.5 C 25 25.671875 24.328125 25 23.5 25 Z M 12 35 L 38 35 C 39.117188 35 40 35.882813 40 37 L 40 43 L 37.9375 43 C 37.972656 42.839844 38 42.671875 38 42.5 L 38 39.5 C 38 38.132813 36.867188 37 35.5 37 C 34.132813 37 33 38.132813 33 39.5 L 33 42.5 C 33 42.671875 33.027344 42.839844 33.0625 43 L 30.9375 43 C 30.972656 42.839844 31 42.671875 31 42.5 L 31 39.5 C 31 38.132813 29.867188 37 28.5 37 C 27.132813 37 26 38.132813 26 39.5 L 26 42.5 C 26 42.671875 26.027344 42.839844 26.0625 43 L 23.9375 43 C 23.972656 42.839844 24 42.671875 24 42.5 L 24 39.5 C 24 38.132813 22.867188 37 21.5 37 C 20.132813 37 19 38.132813 19 39.5 L 19 42.5 C 19 42.671875 19.027344 42.839844 19.0625 43 L 16.9375 43 C 16.972656 42.839844 17 42.671875 17 42.5 L 17 39.5 C 17 38.132813 15.867188 37 14.5 37 C 13.132813 37 12 38.132813 12 39.5 L 12 42.5 C 12 42.671875 12.027344 42.839844 12.0625 43 L 10 43 L 10 37 C 10 35.882813 10.882813 35 12 35 Z M 14.5 39 C 14.785156 39 15 39.214844 15 39.5 L 15 42.5 C 15 42.785156 14.785156 43 14.5 43 C 14.214844 43 14 42.785156 14 42.5 L 14 39.5 C 14 39.214844 14.214844 39 14.5 39 Z M 21.5 39 C 21.785156 39 22 39.214844 22 39.5 L 22 42.5 C 22 42.785156 21.785156 43 21.5 43 C 21.214844 43 21 42.785156 21 42.5 L 21 39.5 C 21 39.214844 21.214844 39 21.5 39 Z M 28.5 39 C 28.785156 39 29 39.214844 29 39.5 L 29 42.5 C 29 42.785156 28.785156 43 28.5 43 C 28.214844 43 28 42.785156 28 42.5 L 28 39.5 C 28 39.214844 28.214844 39 28.5 39 Z M 35.5 39 C 35.785156 39 36 39.214844 36 39.5 L 36 42.5 C 36 42.785156 35.785156 43 35.5 43 C 35.214844 43 35 42.785156 35 42.5 L 35 39.5 C 35 39.214844 35.214844 39 35.5 39 Z "/>
</g>
</svg>
