<?xml version="1.0" encoding="UTF-8"?>
<svg width="26px" height="46px" viewBox="0 0 26 46" version="1.1" xmlns="http://www.w3.org/2000/svg" xmlns:xlink="http://www.w3.org/1999/xlink">
    <g id="Page-1" stroke="none" stroke-width="1" fill="none" fill-rule="evenodd">
        <g id="inverter" transform="translate(-12.000000, -2.000000)">
            <path d="M25.925,32.785 C28.031,34.395 29.26,36.843 29.26,39.483 C29.26,44.163 25.391,47.982 20.645,47.982 C15.899,47.982 12.03,44.162 12.03,39.483 C12.03,36.875 13.284,34.358 15.375,32.77 L15.375,7.163 C15.375,0.237 25.924,0.481 25.924,7.163 L25.924,32.785 L25.925,32.785 Z M29.858,13.995 C28.252,14.915 26.833,12.5 28.438,11.585 C30.665,10.313 31.891,10.755 33.969,11.935 C34.642,12.316 35.263,11.467 35.263,11.467 C36.083,9.84 38.612,11.067 37.783,12.713 C37.779,12.72 35.363,15.937 32.564,14.347 C31.389,13.68 31.051,13.309 29.858,13.996 L29.858,13.995 Z M29.858,20.459 C28.252,21.379 26.833,18.964 28.438,18.049 C30.665,16.777 31.891,17.22 33.969,18.4 C34.642,18.78 35.263,17.931 35.263,17.931 C36.083,16.303 38.612,17.531 37.783,19.176 C37.779,19.184 35.363,22.402 32.564,20.811 C31.389,20.144 31.051,19.774 29.858,20.459 Z M29.858,26.923 C28.252,27.843 26.833,25.428 28.438,24.512 C30.665,23.24 31.891,23.684 33.969,24.864 C34.642,25.245 35.263,24.394 35.263,24.394 C36.083,22.768 38.612,23.995 37.783,25.64 C37.779,25.648 35.363,28.865 32.564,27.275 C31.389,26.608 31.051,26.238 29.858,26.923 Z M21.82,35.022 L21.82,7.162 C21.82,5.688 19.482,5.639 19.482,7.162 L19.482,35.032 C17.59,36.074 16.135,37.035 16.135,39.483 C16.135,41.953 18.14,43.934 20.645,43.934 C23.15,43.934 25.155,41.953 25.155,39.484 C25.155,37.104 23.748,36.084 21.82,35.022 L21.82,35.022 Z" id="Shape" fill="#000000" fill-rule="nonzero"></path>
            <rect id="Rectangle" x="0" y="0" width="50" height="50"></rect>
        </g>
    </g>
</svg>