<svg height="960" viewBox="0 0 960 960" width="960" xmlns="http://www.w3.org/2000/svg"><path d="m101.812336 95.0603832c13.200035-8.5127655 28.73027-12.7513942 44.778263-11.968468l.776913.0418056.869807.0566156 726.526409 53.7295446c42.058464 3.110458 75.847471 38.065792 77.194644 79.967886l.030868 1.271862.01076 1.312511v544.30889c0 43.106576-34.403131 78.243861-77.338077 79.872123l-1.303643.039058-.984866.015069-33.103414.20072-.254769.311596c-3.24204 3.925254-6.614691 7.479332-10.150294 10.663288l-.818816.728189-.640913.557287c-12.24751 10.544072-26.547348 16.774722-42.294966 16.955696l-1.517954.006664-7.936162.075153-17.523433.209041-55.586111.716986-103.704582 1.384107.060451 1.725734c.343085 9.82468-7.25405 18.084861-17.030484 18.602711l-.33036.014515-36.965997 1.290881c-9.82468.343085-18.084861-7.25405-18.602711-17.030484l-.014515-.33036-.115384-3.297997-47.79.638.511227 29.22658c.066066 3.784876-2.884443 6.920494-6.636224 7.112843l-.240543.008258-23.451068.40934c-3.784875.066065-6.920493-2.884443-7.112842-6.636225l-.008258-.240542-.513292-29.380254-58.101.776.540808 30.95058c.066065 3.784876-2.884443 6.920494-6.636225 7.112843l-.240542.008258-23.451068.410428c-3.784875.064977-6.920493-2.885531-7.112842-6.637313l-.008259-.240542-.543872-31.104254-55.047.735.17128 4.88934c.343085 9.82468-7.25405 18.084861-17.030484 18.602711l-.33036.014515-40.281637 1.406666c-9.82468.343085-18.084861-7.25405-18.602711-17.030484l-.014515-.33036-.229573-6.565388-7.479069.096184-18.543898.214952-5.930294.061864h-1.757094c-12.959893 0-26.715531-1.159607-38.069742-3.519-8.219625-1.70803-15.45826-4.029775-22.123375-7.629856-5.531867-2.98797-10.537266-6.777205-14.884138-11.944547-5.47245-6.505374-9.162024-14.472693-10.2445416-23.300351l-.0712841-.617272-.0485643-.478981-34.285452-15.413669c-26.0801407-11.725107-43.1699102-37.226974-44.197495-65.687684l-.0262151-.86334-.0228379-.873832v-553.157439c0-22.696604 10.2767764-44.153983 27.9169499-58.379709l.5368016-.428863.6402264-.500457 52.2423249-40.1100457c.8305746-.6376678 1.6783222-1.2377466 2.5411833-1.8004885l.6499469-.4150597.525567-.3234131zm710.551679 718.1575468-673.306543 4.01527c-1.598206.009383-3.178322-.059347-4.73731-.202767v12.146079c0 2.837863 2.901473 5.089334 7.468073 6.832712l.663577.245606c.112441.040361.225794.080437.340042.120227l.696093.235332c.117762.038655.236384.077027.355852.115118l.726813.225172.746294.218462.764976.211802.782859.205195c.131922.033651.264556.067029.397886.100134l.808185.195377.824071.188895.839159.182464.853446.176084 1.107171.215253.561285.103804 1.136937.200028 1.154713.190009 1.170835.180095.590946.086363 1.191918.165421.600557.079085 1.209278.150983.608307.071926 1.222917.136782 1.229942.127446.617088.060255 1.237379.113638 1.240269.104565 1.241506.095596 1.241087.086733 1.239016.077973 1.23529.06932 1.536354.074641 1.524717.061489 1.209225.03986 1.198056.031678 1.772525.032408 1.162898.015557h1.877955l2.425598-.020829 5.943413-.060787 8.551177-.098194 19.563439-.239856 62.735034-.810317 411.883629-5.499286 55.840695-.722954 19.416306-.239856 12.647953-.143033 2.979412-.027457 2.056945-.012349c8.844375-.155276 17.68337-6.279767 26.516985-18.373475l.384066-.529575zm-674.213702-689.917066c-5.856483.761036-11.265547 2.939474-15.930279 6.233715l-.479891.344751-.045078-.056609-8.68438 6.665841c-3.134163 5.053355-4.961727 11.281514-4.961727 18.201059v608.421584c0 19.127712 14.008282 34.221114 30.88987 34.122468l740.004161-4.413945c17.156216-.102279 31.008515-13.786092 31.008515-30.450998v-551.406162c0-1.953533-.189851-3.881941-.552535-5.766968-5.080986-13.586603-17.095422-24.312727-31.653447-27.516578zm-50.102313 32.354143-18.3619167 14.09724-.4081667.318179c-8.244273 6.525026-13.1189952 16.413247-13.2740996 26.926093l-.003817.517517v552.636194c.1781424 13.442617 8.0424905 25.600795 20.2311947 31.272669l.4171943.190839 17.8962606 8.046671c-4.1409983-7.855153-6.4956918-16.918382-6.4956918-26.549204zm782.36786 595.386921c2.204561-8.09346 10.073538-13.266509 17.575851-11.55433 7.502314 1.71218 11.79699 9.661222 9.592429 17.754682s-10.073538 13.26651-17.575851 11.55433c-7.502314-1.71218-11.79699-9.661221-9.592429-17.754682zm-737-1.928835c2.204561-8.842012 10.073538-14.493509 17.575851-12.622972 7.502314 1.870536 11.79699 10.554773 9.592429 19.396786-2.204561 8.842012-10.073538 14.493509-17.575851 12.622972-7.502314-1.870536-11.79699-10.554773-9.592429-19.396786zm737-260.774154c2.204561-8.09346 10.073538-13.266509 17.575851-11.55433 7.502314 1.71218 11.79699 9.661222 9.592429 17.754682s-10.073538 13.26651-17.575851 11.55433c-7.502314-1.71218-11.79699-9.661221-9.592429-17.754682zm-737-26.225846c2.204561-8.842012 10.073538-14.493509 17.575851-12.622972 7.502314 1.870536 11.79699 10.554773 9.592429 19.396786-2.204561 8.842012-10.073538 14.493509-17.575851 12.622972-7.502314-1.870536-11.79699-10.554773-9.592429-19.396786zm737-235.561801c2.204561-8.09346 10.073538-13.26651 17.575851-11.55433 7.502314 1.71218 11.79699 9.661222 9.592429 17.754682s-10.073538 13.26651-17.575851 11.55433c-7.502314-1.71218-11.79699-9.661222-9.592429-17.754682zm-737-50.438199c2.204561-8.842012 10.073538-14.493509 17.575851-12.622972 7.502314 1.870536 11.79699 10.554773 9.592429 19.396786-2.204561 8.842012-10.073538 14.493509-17.575851 12.622972-7.502314-1.870536-11.79699-10.554773-9.592429-19.396786z"/></svg>