<?xml version="1.0" standalone="no"?>
<!DOCTYPE svg PUBLIC "-//W3C//DTD SVG 20010904//EN"
 "http://www.w3.org/TR/2001/REC-SVG-20010904/DTD/svg10.dtd">
<svg version="1.0" xmlns="http://www.w3.org/2000/svg"
 width="179.000000pt" height="184.000000pt" viewBox="0 0 179.000000 184.000000"
 preserveAspectRatio="xMidYMid meet">
<metadata>
Created by potrace 1.10, written by Peter Selinger 2001-2011
</metadata>
<g transform="translate(0.000000,184.000000) scale(0.050000,-0.050000)"
fill="#000000" stroke="none">
<path d="M1710 3580 c-33 -36 -109 -285 -110 -360 -1 -50 -41 -180 -56 -180
-8 0 -61 79 -118 175 -230 387 -318 371 -258 -48 19 -138 32 -254 27 -259 -5
-5 -101 63 -213 150 -233 183 -269 200 -323 151 -62 -56 -47 -119 82 -362 139
-260 145 -253 -138 -157 -395 134 -441 51 -123 -221 99 -85 180 -161 180 -169
0 -9 -123 -19 -272 -23 -256 -8 -275 -11 -310 -55 -75 -92 -17 -147 277 -263
124 -48 225 -94 225 -101 0 -8 -97 -52 -215 -98 -416 -163 -390 -253 75 -259
l230 -2 -220 -207 c-212 -200 -219 -209 -199 -264 29 -84 106 -83 378 4 127
41 236 70 241 65 5 -6 -44 -108 -110 -228 -128 -234 -140 -277 -85 -306 51
-27 95 -4 294 155 234 187 218 206 160 -182 -62 -411 88 -416 329 -11 131 220
126 222 189 -69 91 -420 183 -403 263 50 42 237 46 236 195 -7 137 -225 196
-285 260 -261 77 28 85 98 45 361 -46 298 -50 295 164 122 342 -276 415 -211
197 176 -128 229 -134 224 147 133 443 -144 517 -29 172 268 -236 204 -237
201 25 204 287 4 333 14 341 81 7 59 -34 84 -331 197 -200 76 -199 77 75 182
294 112 358 179 260 268 -34 31 -86 38 -311 46 -149 5 -268 15 -265 23 3 8 85
84 181 169 197 174 230 220 194 263 -36 44 -95 36 -337 -48 -122 -42 -222 -68
-222 -58 0 10 55 126 123 257 216 417 94 467 -316 129 -154 -127 -170 -132
-156 -56 108 601 39 693 -214 282 -149 -242 -142 -243 -196 18 -52 256 -75
320 -122 346 -52 27 -68 24 -109 -21z m-371 -360 c57 -93 122 -189 144 -213
74 -79 -27 -182 -155 -158 -67 13 -68 15 -69 117 -1 57 -13 172 -28 254 -15
83 -22 157 -17 166 12 21 2 35 125 -166z m450 135 c6 -25 20 -103 32 -175 13
-71 35 -159 50 -196 26 -63 26 -66 -23 -85 -143 -54 -204 -2 -159 132 19 55
39 160 45 234 12 135 36 175 55 90z m523 -178 c-18 -101 -32 -214 -32 -250 0
-80 -75 -112 -157 -65 -97 55 -97 83 0 231 50 75 116 177 147 227 72 114 81
85 42 -143z m346 -332 c-138 -263 -147 -270 -235 -188 -82 76 -80 89 22 149
47 28 139 100 205 161 66 61 122 112 125 112 3 1 -50 -105 -117 -234z m-1737
95 c62 -51 145 -113 185 -138 90 -55 92 -83 11 -151 -82 -70 -114 -60 -155 49
-19 50 -66 140 -104 200 -109 171 -108 168 -76 149 15 -9 78 -58 139 -109z
m749 -100 c16 -26 162 -26 211 1 32 17 51 8 110 -50 65 -65 80 -71 188 -71
112 0 119 -3 157 -68 25 -42 68 -78 112 -94 58 -21 72 -36 72 -79 0 -95 43
-180 117 -230 68 -46 73 -56 73 -157 0 -78 11 -120 38 -150 38 -42 38 -43 -3
-87 -77 -82 -95 -237 -39 -329 7 -11 -10 -32 -38 -47 -60 -32 -108 -116 -108
-188 0 -38 -10 -51 -41 -51 -89 0 -170 -54 -220 -147 -46 -88 -54 -93 -131
-93 -60 0 -97 -14 -137 -51 -53 -49 -59 -50 -118 -22 -119 55 -150 56 -245 14
l-93 -41 -59 50 c-43 36 -83 50 -144 50 -78 0 -86 5 -109 69 -32 87 -107 148
-204 163 -70 12 -75 18 -85 95 -8 60 -28 97 -72 134 -57 48 -59 55 -39 123 29
95 8 199 -53 256 l-49 46 42 58 c33 47 40 79 32 157 -9 95 -6 100 59 139 73
43 126 142 126 238 0 49 10 61 59 72 55 12 161 111 161 150 0 9 49 16 108 14
106 -2 252 71 252 127 0 25 54 24 70 -1z m-1109 -211 c82 -28 185 -58 229 -66
101 -18 124 -114 48 -195 -61 -65 -87 -61 -174 28 -41 41 -128 122 -194 179
-136 118 -121 127 91 54z m2439 -128 c-207 -195 -236 -208 -300 -127 -80 102
-50 168 90 198 66 14 165 44 220 66 193 78 191 52 -10 -137z m-2230 -361 c43
-136 -36 -216 -152 -152 -49 26 -142 64 -208 84 -175 52 -177 68 -9 69 125 2
191 9 343 36 7 2 19 -15 26 -37z m2420 9 l140 11 -196 -80 c-108 -44 -219 -96
-248 -114 -65 -43 -106 1 -106 114 0 96 0 96 145 75 69 -9 188 -12 265 -6z
m-2450 -479 c0 -103 -35 -131 -140 -110 -49 10 -169 19 -266 19 -212 1 -209
16 20 98 97 35 203 80 236 101 77 48 150 -4 150 -108z m2242 101 c49 -26 151
-72 228 -101 205 -76 198 -83 -94 -96 -326 -14 -388 29 -275 188 50 69 35 68
141 9z m-2115 -367 c85 -95 66 -155 -57 -182 -62 -14 -178 -52 -257 -83 l-143
-58 110 94 c61 51 146 132 190 179 90 95 110 102 157 50z m1966 -44 c39 -44
126 -121 191 -170 143 -108 141 -108 -114 -20 -110 38 -220 70 -245 70 -51 0
-54 13 -24 94 20 55 70 106 103 106 9 0 49 -36 89 -80z m-1718 -312 c64 -71
56 -112 -30 -161 -41 -24 -132 -89 -201 -145 -177 -143 -180 -133 -39 139 138
266 166 283 270 167z m1588 -167 c130 -251 133 -276 22 -188 -107 86 -248 192
-302 227 -63 41 -30 130 62 170 91 40 88 43 218 -209z m-1217 2 c39 -39 38
-40 -23 -117 -35 -42 -93 -134 -130 -204 -82 -152 -98 -139 -62 48 15 77 28
184 28 238 l1 97 74 -12 c40 -6 91 -29 112 -50z m755 -8 c0 -74 48 -347 69
-400 28 -70 -24 -33 -69 50 -26 47 -86 140 -133 208 -81 114 -84 124 -52 152
91 79 184 74 185 -10z m-351 -95 c21 -17 19 -39 -10 -116 -19 -52 -46 -159
-59 -239 -37 -220 -58 -213 -101 30 -12 69 -35 162 -51 207 -38 109 -38 112
25 145 55 29 143 17 196 -27z"/>
</g>
</svg>
