<svg xmlns="http://www.w3.org/2000/svg" xmlns:xlink="http://www.w3.org/1999/xlink" viewBox="0 0 100.98 76.09"><defs><clipPath id="a" transform="translate(0 0)"><path d="M464.91-152.07s-57.78,30.9-87.65,51h0l-.34,1,.7.5h0c10.69,0,51.18.06,52.2-.13a40.82,40.82,0,0,0,11.71-2.67,39.76,39.76,0,0,0,21.86-20.87,40.73,40.73,0,0,0,1.52-28.82" style="fill:none"/></clipPath></defs><title>Huawei_Standard_logo_edited</title><path d="M43.12,0c-1.35.12-5,1-5,1h0A14.38,14.38,0,0,0,28,10.53a14.74,14.74,0,0,0-.64,3.75v1.65A20.29,20.29,0,0,0,28,20.38c2.74,12.17,16.24,32.17,19.14,36.37.21.2.37.13.37.13a.38.38,0,0,0,.29-.39h0C52.28,11.84,43.12,0,43.12,0ZM57.88,0s-9.2,11.84-4.72,56.53h0a.39.39,0,0,0,.24.34.36.36,0,0,0,.45-.17h0c3-4.31,16.4-24.2,19.13-36.32,0,0,1.48-5.87,0-9.85A14.39,14.39,0,0,0,62.77,1a49.81,49.81,0,0,0-4.89-1ZM15.46,13.41S7.63,20.84,7.24,28.72h0v1.19a2.45,2.45,0,0,1,0,.27A14.86,14.86,0,0,0,12.38,40.3c7.7,7.5,26.34,17,30.68,19.13a.37.37,0,0,0,.41-.07.38.38,0,0,0,.1-.15V59s0,0,0,0h0a230.92,230.92,0,0,0-28.1-45.57Zm70.06,0a230.83,230.83,0,0,0-28,45.45h0a.44.44,0,0,0,.09.5.39.39,0,0,0,.16.07h.16l.09,0h0c4.45-2.21,23-11.62,30.62-19.09a15,15,0,0,0,5.11-10.16c.56-8.69-8.19-16.73-8.19-16.73Zm14.57,25.73S73.7,53.3,60.06,62.5h0a.42.42,0,0,0-.16.45s.13.23.32.23h0c4.89,0,23.38,0,23.84,0a18.84,18.84,0,0,0,5.35-1.23,18.21,18.21,0,0,0,10-9.56A18.52,18.52,0,0,0,101,44.84v-.19a18,18,0,0,0-.89-5.51Zm-99.2.07a18.36,18.36,0,0,0,10.63,22.7,18.91,18.91,0,0,0,5.94,1.3c.46.09,18.46,0,23.28,0a.4.4,0,0,0,.32-.21l0-.06v-.19a.45.45,0,0,0-.15-.21h0C27.31,53.33.89,39.21.89,39.21Zm39.3,26.27-31,1.09c3.37,6,9,10.66,14.94,9.23,4.08-1,13.31-7.46,16.36-9.63h0c.23-.21.15-.38.15-.38a.42.42,0,0,0-.4-.28Zm20.56,0h0a.37.37,0,0,0-.23.65h0c3,2.13,12,8.42,16.32,9.65a6.89,6.89,0,0,0,1.76.26h.66c2.91-.1,8-1.59,12.58-9.5Z" transform="translate(0 0)"/></svg>