<?xml version="1.0" encoding="iso-8859-1"?>
<!-- Generator: Adobe Illustrator 16.0.0, SVG Export Plug-In . SVG Version: 6.00 Build 0)  -->
<!DOCTYPE svg PUBLIC "-//W3C//DTD SVG 1.1//EN" "http://www.w3.org/Graphics/SVG/1.1/DTD/svg11.dtd">
<svg version="1.1" id="Capa_1" xmlns="http://www.w3.org/2000/svg" xmlns:xlink="http://www.w3.org/1999/xlink" x="0px" y="0px"
	 width="106.583px" height="106.583px" viewBox="0 0 106.583 106.583" style="enable-background:new 0 0 106.583 106.583;"
	 xml:space="preserve">
<g>
	<g>
		<polygon points="61.4,33.937 61.4,44.745 79.76,44.745 76.698,33.937 		"/>
		<polygon points="61.486,59.051 82.905,59.051 79.838,48.249 61.486,48.249 		"/>
		<path d="M79.401,27.139H12.688c-1.934,0-3.511,1.273-3.511,2.828L0,77.449c0,1.561,1.572,2.83,3.511,2.83h5.314h4.603h65.575
			h4.292h7.727c1.938,0,3.512-1.27,3.512-2.83L82.905,29.967C82.905,28.412,81.334,27.139,79.401,27.139z M4.211,76.883
			l9.178-46.348h65.307l11.629,46.348H4.211z"/>
		<polygon points="33.048,33.937 16.529,33.937 13.466,44.745 33.048,44.745 		"/>
		<rect x="37.521" y="33.937" width="19.578" height="10.804"/>
		<polygon points="10.487,59.051 33.131,59.051 33.131,48.249 13.55,48.249 		"/>
		<rect x="37.594" y="48.249" width="19.583" height="10.803"/>
		<polygon points="8.042,73.479 33.131,73.479 33.131,62.671 11.101,62.671 		"/>
		<rect x="37.594" y="62.671" width="19.583" height="10.808"/>
		<polygon points="61.486,62.671 61.486,73.479 85.964,73.479 82.905,62.671 		"/>
		<polygon points="50.819,82.793 43.078,82.793 43.078,98.173 33.983,98.173 33.983,103.409 60.148,103.409 60.148,98.173 
			50.819,98.173 		"/>
		<path d="M81.557,24.858c1.93,0,3.504,1.268,3.504,2.829l3.271,13.352c3.196-2.658,5.28-6.617,5.28-11.099
			c0-8.001-6.484-14.487-14.492-14.487c-6.205,0-11.461,3.925-13.518,9.409h15.954V24.858z"/>
		<path d="M106.368,29.61l-7.953-2.137c-0.1-0.029-0.213-0.007-0.295,0.06c-0.085,0.063-0.13,0.161-0.13,0.269v4.276
			c0,0.104,0.045,0.207,0.13,0.27c0.082,0.067,0.195,0.084,0.295,0.055l7.953-2.137C106.655,30.185,106.655,29.69,106.368,29.61z"/>
		<path d="M76.981,11.77h4.281c0.106,0,0.205-0.049,0.268-0.133c0.062-0.083,0.085-0.19,0.062-0.291l-2.143-7.952
			c-0.075-0.294-0.571-0.294-0.65,0l-2.139,7.952c-0.03,0.101-0.007,0.21,0.059,0.291C76.78,11.721,76.882,11.77,76.981,11.77z"/>
		<path d="M93.48,18.603c0.075,0.074,0.178,0.11,0.284,0.096c0.099-0.01,0.194-0.073,0.249-0.166l4.106-7.134
			c0.151-0.264-0.198-0.614-0.465-0.46l-7.129,4.111c-0.089,0.048-0.153,0.144-0.167,0.245c-0.014,0.104,0.023,0.21,0.096,0.284
			L93.48,18.603z"/>
		<path d="M92.371,41.343c-0.051-0.087-0.144-0.15-0.243-0.164c-0.105-0.016-0.208,0.021-0.283,0.094l-2.775,2.775l0.249,1.033
			l6.701,3.858c0.264,0.15,0.616-0.2,0.465-0.462L92.371,41.343z"/>
		<path d="M62.848,18.708c0.096,0.007,0.201-0.032,0.273-0.106l3.025-3.023c0.071-0.074,0.113-0.176,0.099-0.277
			c0-0.097-0.062-0.181-0.144-0.228L59.504,11.5c-0.239-0.13-0.596,0.217-0.462,0.462l3.576,6.596
			C62.67,18.649,62.749,18.698,62.848,18.708z"/>
	</g>
</g>
<g>
</g>
<g>
</g>
<g>
</g>
<g>
</g>
<g>
</g>
<g>
</g>
<g>
</g>
<g>
</g>
<g>
</g>
<g>
</g>
<g>
</g>
<g>
</g>
<g>
</g>
<g>
</g>
<g>
</g>
</svg>
