<svg fill="#000000" xmlns="http://www.w3.org/2000/svg"  viewBox="0 0 30 30" width="30px" height="30px"><path d="M 14.984375 0.98632812 A 1.0001 1.0001 0 0 0 14 2 L 14 3 A 1.0001 1.0001 0 1 0 16 3 L 16 2 A 1.0001 1.0001 0 0 0 14.984375 0.98632812 z M 9.3320312 3.3320312 A 1.0001 1.0001 0 0 0 8.6367188 5.0507812 L 9.34375 5.7578125 A 1.0001 1.0001 0 1 0 10.757812 4.34375 L 10.050781 3.6367188 A 1.0001 1.0001 0 0 0 9.3320312 3.3320312 z M 20.636719 3.3339844 A 1.0001 1.0001 0 0 0 19.949219 3.6367188 L 19.242188 4.34375 A 1.0001 1.0001 0 1 0 20.65625 5.7578125 L 21.363281 5.0507812 A 1.0001 1.0001 0 0 0 20.636719 3.3339844 z M 15 6 C 12.791 6 11 7.791 11 10 C 11 10.348 11.057625 10.679 11.140625 11 L 18.853516 11 C 18.938516 10.679 19 10.348 19 10 C 19 7.791 17.209 6 15 6 z M 7 9 A 1.0001 1.0001 0 1 0 7 11 L 8 11 A 1.0001 1.0001 0 1 0 8 9 L 7 9 z M 22 9 A 1.0001 1.0001 0 1 0 22 11 L 23 11 A 1.0001 1.0001 0 1 0 23 9 L 22 9 z M 6 13 A 1.0001 1.0001 0 0 0 5.015625 13.820312 L 3.015625 24.820312 A 1.0001 1.0001 0 0 0 3 25 L 3 26 A 1.0001 1.0001 0 0 0 4 27 L 26 27 A 1.0001 1.0001 0 0 0 27 26 L 27 25 A 1.0001 1.0001 0 0 0 26.984375 24.820312 L 24.984375 13.820312 A 1.0001 1.0001 0 0 0 24 13 L 6 13 z M 6.8339844 15 L 23.166016 15 L 24.984375 25 L 5.015625 25 L 6.8339844 15 z M 8.8945312 17 L 8.5957031 19 L 11.492188 19 L 11.689453 17 L 8.8945312 17 z M 13.324219 17 L 13.126953 19 L 16.873047 19 L 16.675781 17 L 13.324219 17 z M 18.310547 17 L 18.507812 19 L 21.404297 19 L 21.105469 17 L 18.310547 17 z M 8.2988281 21 L 8 23 L 11.099609 23 L 11.296875 21 L 8.2988281 21 z M 12.929688 21 L 12.732422 23 L 17.267578 23 L 17.070312 21 L 12.929688 21 z M 18.703125 21 L 18.900391 23 L 22 23 L 21.701172 21 L 18.703125 21 z"/></svg>