<?xml version="1.0" encoding="UTF-8" standalone="no"?>
<!DOCTYPE svg PUBLIC "-//W3C//DTD SVG 1.1//EN" "http://www.w3.org/Graphics/SVG/1.1/DTD/svg11.dtd">
<svg width="100%" height="100%" viewBox="0 0 380 742" version="1.1" xmlns="http://www.w3.org/2000/svg" xmlns:xlink="http://www.w3.org/1999/xlink" xml:space="preserve" xmlns:serif="http://www.serif.com/" style="fill-rule:evenodd;clip-rule:evenodd;stroke-linejoin:round;stroke-miterlimit:2;">
    <g transform="matrix(1,0,0,1,-1050.28,-808.664)">
        <path d="M1426.58,832.712C1426.58,819.44 1415.81,808.664 1402.53,808.664L1077.79,808.664C1064.51,808.664 1053.74,819.44 1053.74,832.712C1053.74,832.712 1045.95,1064.2 1053.74,1179.48C1056.12,1214.81 1073.12,1260.92 1079.34,1307.94C1093.46,1414.78 1100.6,1526.25 1100.6,1526.25C1100.6,1539.53 1111.37,1550.3 1124.64,1550.3L1355.71,1550.3C1368.99,1550.3 1379.76,1539.53 1379.76,1526.25C1379.76,1526.25 1386.49,1414.78 1400.6,1307.94C1406.81,1260.92 1424.2,1214.81 1426.58,1179.48C1434.36,1064.2 1426.58,832.712 1426.58,832.712ZM1237.47,1238.19C1233.77,1237.72 1230.31,1235.97 1227.63,1233.2C1224.68,1230.16 1223.11,1226.56 1222.89,1222.36C1222.48,1214.28 1227.88,1207.16 1235.92,1205.19C1237,1204.92 1237.57,1204.87 1239.5,1204.87C1242.58,1204.85 1244.63,1205.3 1246.96,1206.47C1252.67,1209.34 1256.12,1214.63 1256.36,1220.89C1256.6,1227.13 1253.54,1232.74 1248.1,1236.02C1245.07,1237.86 1241.15,1238.65 1237.47,1238.19L1237.47,1238.19ZM1220.09,1200.61C1219.35,1200.24 1212.83,1193.71 1212.47,1192.99C1212.24,1192.51 1212.21,1192.22 1212.25,1190.76C1212.29,1189.39 1212.34,1189 1212.58,1188.55C1212.91,1187.91 1215.49,1185.38 1217.34,1183.88C1221.39,1180.59 1226.72,1178 1231.81,1176.85C1234.62,1176.21 1236.29,1176.04 1239.7,1176.04C1243.1,1176.04 1244.77,1176.21 1247.58,1176.85C1252.67,1178 1258,1180.59 1262.06,1183.88C1264.14,1185.57 1266.59,1188.01 1266.84,1188.65C1267.13,1189.37 1267.26,1192.1 1267.04,1192.79C1266.82,1193.45 1260.11,1200.22 1259.28,1200.61C1258.53,1200.96 1257.22,1200.97 1256.47,1200.63C1256.14,1200.49 1255.56,1199.98 1255.05,1199.4C1253.86,1198.06 1252,1196.54 1250.31,1195.52C1242.77,1190.99 1233.23,1191.74 1226.44,1197.4C1225.77,1197.96 1224.82,1198.87 1224.34,1199.4C1223.83,1199.98 1223.25,1200.49 1222.93,1200.63C1222.18,1200.97 1220.81,1200.96 1220.09,1200.61L1220.09,1200.61ZM1200.49,1181.1C1199.78,1180.74 1192.85,1173.74 1192.68,1173.21C1192.6,1172.96 1192.55,1172.07 1192.58,1171.16C1192.61,1169.85 1192.67,1169.45 1192.9,1169.02C1193.44,1167.97 1198.4,1163.37 1201.64,1160.91C1206.81,1156.98 1213.8,1153.33 1220.06,1151.31C1234.13,1146.76 1249.48,1147.25 1263.08,1152.67C1268.12,1154.69 1273.65,1157.79 1277.75,1160.91C1280.99,1163.37 1285.95,1167.97 1286.49,1169.02C1286.72,1169.45 1286.78,1169.85 1286.82,1171.16C1286.84,1172.07 1286.8,1172.96 1286.72,1173.21C1286.53,1173.79 1279.46,1180.88 1278.8,1181.15C1278.19,1181.41 1276.89,1181.4 1276.23,1181.13C1275.88,1180.99 1275.26,1180.44 1274.34,1179.46C1269.51,1174.28 1262.51,1169.84 1255.29,1167.39C1250.04,1165.61 1245.41,1164.85 1239.7,1164.85C1233.99,1164.85 1229.35,1165.61 1224.1,1167.39C1216.88,1169.84 1209.88,1174.28 1205.06,1179.46C1204.14,1180.44 1203.52,1180.99 1203.16,1181.13C1202.45,1181.42 1201.09,1181.4 1200.49,1181.1L1200.49,1181.1ZM1180.75,1161.27C1179.96,1160.92 1173.36,1154.23 1173.15,1153.58C1173.06,1153.29 1173.01,1152.46 1173.04,1151.49C1173.07,1150.18 1173.13,1149.78 1173.36,1149.34C1173.78,1148.55 1178.04,1144.44 1181.22,1141.79C1194.28,1130.85 1209.93,1123.85 1226.63,1121.46C1231.74,1120.73 1233.14,1120.64 1239.7,1120.64C1246.25,1120.64 1247.65,1120.73 1252.77,1121.46C1269.46,1123.85 1285.11,1130.85 1298.18,1141.79C1301.35,1144.44 1305.62,1148.55 1306.03,1149.34C1306.26,1149.78 1306.32,1150.18 1306.36,1151.49C1306.38,1152.46 1306.34,1153.29 1306.25,1153.58C1306.02,1154.27 1299.42,1160.93 1298.6,1161.28C1297.82,1161.62 1296.55,1161.62 1295.77,1161.27C1295.4,1161.1 1294.4,1160.23 1293.01,1158.87C1287.09,1153.09 1281.26,1148.89 1274.06,1145.24C1265.14,1140.73 1256.32,1138.24 1245.76,1137.26C1241.82,1136.9 1234.74,1137.07 1230.2,1137.63C1221.51,1138.71 1213.21,1141.25 1205.34,1145.24C1198.13,1148.89 1192.3,1153.09 1186.38,1158.87C1184.99,1160.23 1184,1161.1 1183.62,1161.27C1182.86,1161.61 1181.5,1161.61 1180.75,1161.27L1180.75,1161.27ZM1339.77,995.085C1339.77,983.953 1330.73,974.915 1319.6,974.915L1160.72,974.915C1149.59,974.915 1140.55,983.953 1140.55,995.085L1140.55,1035.42C1140.55,1046.56 1149.59,1055.59 1160.72,1055.59L1319.6,1055.59C1330.73,1055.59 1339.77,1046.56 1339.77,1035.42L1339.77,995.085Z"/>
    </g>
</svg>
