<?xml version="1.0" encoding="utf-8"?>
<!-- Generator: Adobe Illustrator 19.0.0, SVG Export Plug-In . SVG Version: 6.00 Build 0)  -->
<svg version="1.1" id="Layer_1" xmlns="http://www.w3.org/2000/svg" xmlns:xlink="http://www.w3.org/1999/xlink" x="0px" y="0px"
	 viewBox="0 0 499.3 468.2" style="enable-background:new 0 0 499.3 468.2;" xml:space="preserve">
<path id="XMLID_70_" d="M353.7,293c-9.6,80.4-76.8,158.3-151.6,172.5c-48.5,9.2-92.7-5.9-133.9-31c-17.2-23.6-10.8-49.7-5.4-74.4
	c11.2-50.5,42-90.1,76.4-127.1c9.1-9.8,18.9-7.4,28.6,0.5c25.5,21,52.9,38.7,84.9,48.9c26.7,8.5,53.6,11.2,81.3,6.9
	C340.8,288.3,348,286.9,353.7,293z"/>
<path id="XMLID_69_" d="M499.3,29.4c-73.4,63.1-107.6,148.2-132.9,238.2c-5.6,7.4-13.8,10.3-22.5,11.2
	c-61.4,6.4-115.4-10.9-161.7-51.6c-14.8-13-14.2-23.9,1.4-35.9c58.9-45.4,123.3-81.5,189.8-114.4c35.3-17.5,71.8-32.5,108-48
	C487.5,26.2,493.5,23.7,499.3,29.4z"/>
<path id="XMLID_68_" d="M41.3,412.3c-3.4-0.7-6.1-2.6-7.5-5.6c-42.2-88-50.7-186.9,8.6-270.4c39-54.9,95.8-83.8,158.3-103.2
	c8.2-2.5,16.7-4.2,25.1-6.3c2.3,6-0.9,10.3-4.6,14.4c-30.9,34.3-46.9,74.6-47.4,120.8c-0.1,11.8-4.9,20.5-13.8,27.8
	c-35.3,29.1-65,63-87.6,103c-16.6,29.5-27.2,60.8-26.1,95.3C46.6,396.2,49.6,405.6,41.3,412.3z"/>
<path id="XMLID_66_" d="M263.2,16.4c22-7.2,45-9,67.8-11.1c55.3-5.1,110.8-8.1,166.3-1.6c-0.3,8-6.2,10.4-12.4,13
	c-55.4,22.7-110.3,46.5-163.6,73.9c-32.2,16.5-63.9,33.8-93.7,54.5c-4.9,3.4-9.6,7-15.2,9.2c-11.6,4.5-19.2,0.1-20.1-12.5
	c-1-13.1,2.5-25.9,6.4-38.1C210.4,67.5,227.9,35.3,263.2,16.4z"/>
<g id="XMLID_14_">
</g>
<g id="XMLID_15_">
</g>
<g id="XMLID_16_">
</g>
<g id="XMLID_17_">
</g>
<g id="XMLID_18_">
</g>
<g id="XMLID_19_">
</g>
</svg>
