<?xml version="1.0" standalone="no"?>
<!DOCTYPE svg PUBLIC "-//W3C//DTD SVG 20010904//EN"
 "http://www.w3.org/TR/2001/REC-SVG-20010904/DTD/svg10.dtd">
<svg version="1.0" xmlns="http://www.w3.org/2000/svg"
 width="900.000000pt" height="249.000000pt" viewBox="0 0 900.000000 249.000000"
 preserveAspectRatio="xMidYMid meet">
<metadata>
Created by potrace 1.10, written by Peter Selinger 2001-2011
</metadata>
<g transform="translate(0.000000,249.000000) scale(0.100000,-0.100000)"
fill="#000000" stroke="none">
<path d="M3780 2475 c0 -21 -20 -23 -260 -29 -118 -3 -246 -10 -285 -15 -38
-5 -119 -12 -178 -16 -60 -3 -114 -8 -120 -10 -7 -3 -77 -11 -157 -20 -132
-14 -406 -53 -635 -90 -49 -9 -121 -20 -160 -25 -38 -6 -77 -13 -85 -16 -8 -4
-46 -12 -85 -20 -332 -61 -833 -205 -1043 -300 -29 -13 -56 -24 -60 -24 -21 0
-364 -179 -382 -199 -3 -4 -25 -20 -50 -36 -62 -42 -182 -162 -211 -210 -12
-22 -26 -42 -29 -45 -4 -3 -15 -30 -24 -61 -19 -60 -18 -191 1 -260 16 -55 84
-148 160 -218 145 -134 345 -248 638 -364 105 -41 318 -114 390 -133 28 -7
102 -27 165 -45 63 -17 140 -37 170 -44 214 -50 309 -70 415 -86 39 -6 84 -14
100 -19 17 -5 64 -14 105 -21 106 -16 250 -38 285 -43 29 -5 138 -19 407 -51
70 -9 180 -20 245 -25 65 -5 172 -14 238 -19 220 -19 434 -24 1155 -23 932 0
1099 7 1680 73 199 22 529 68 570 78 19 5 69 15 110 21 68 10 109 17 294 50
32 6 67 15 77 20 10 6 31 10 47 10 16 0 52 6 78 14 27 8 94 24 149 37 55 12
104 26 110 30 5 5 19 9 30 9 24 0 151 36 177 51 10 5 24 9 32 9 14 0 140 40
191 60 47 19 66 27 120 45 118 41 300 130 434 212 167 102 263 190 331 304 22
37 40 77 40 89 0 29 19 62 31 55 5 -4 9 21 9 60 0 39 -4 64 -9 60 -12 -7 -26
19 -35 64 -7 40 -80 151 -133 204 -123 123 -343 258 -573 352 -36 14 -79 33
-97 41 -17 8 -38 14 -46 14 -9 0 -18 4 -21 9 -4 5 -24 12 -46 16 -22 4 -42 10
-45 15 -3 5 -23 11 -45 15 -22 4 -42 10 -45 15 -3 5 -23 11 -45 15 -22 4 -42
10 -45 15 -3 5 -24 11 -48 15 -23 4 -50 11 -59 16 -10 5 -37 14 -60 19 -24 5
-70 16 -103 25 -133 33 -192 47 -240 57 -27 5 -64 14 -80 19 -17 5 -57 13 -90
18 -59 10 -126 23 -215 42 -25 5 -74 14 -110 19 -263 38 -424 61 -475 70 -33
5 -94 12 -135 15 -41 4 -100 10 -130 15 -30 5 -64 9 -75 9 -11 0 -69 5 -130
10 -299 26 -372 31 -525 37 -91 3 -202 7 -248 8 -58 1 -82 5 -82 14 0 18
-1028 18 -1044 -1 -13 -15 -160 -11 -150 4 3 5 -4 9 -15 9 -12 0 -21 -7 -21
-15z m-1285 -529 c18 -13 17 -18 -31 -112 l-50 -99 -470 -5 c-258 -3 -470 -7
-471 -8 -19 -26 -62 -104 -68 -123 -7 -22 -29 -70 -140 -304 -23 -49 -57 -121
-74 -160 -18 -38 -37 -78 -42 -87 -14 -27 -11 -48 9 -48 18 1 52 22 52 34 0 4
13 35 29 69 16 34 43 94 61 132 106 231 129 266 207 306 48 24 48 24 429 27
344 3 382 1 388 -13 9 -24 -75 -187 -103 -201 -16 -8 -110 -12 -293 -12 l-271
0 -23 -29 c-13 -15 -23 -31 -24 -35 0 -6 -18 -46 -119 -260 -88 -189 -102
-216 -116 -228 -20 -17 -616 -15 -626 2 -4 6 -1 26 7 42 9 17 22 45 29 61 17
38 81 175 130 280 57 122 90 194 120 260 15 33 42 92 60 130 19 39 46 97 60
130 50 111 67 142 98 176 41 44 78 67 124 78 21 5 277 9 569 10 437 1 533 -1
549 -13z m3551 -101 c3 -8 -8 -45 -26 -82 -61 -131 -40 -118 -191 -121 -73 -1
-137 2 -142 7 -5 5 5 38 27 86 20 42 36 81 36 85 0 5 10 16 22 24 32 23 266
23 274 1z m278 -280 c6 -18 2 -31 -34 -110 -16 -33 -42 -91 -60 -130 -50 -111
-56 -125 -99 -215 -38 -78 -40 -86 -24 -97 18 -14 395 -17 443 -4 24 6 62 70
109 182 8 19 34 77 59 129 24 52 53 115 64 140 11 25 29 61 39 80 l18 35 135
3 136 3 0 -26 c0 -15 -15 -59 -34 -98 -33 -71 -64 -139 -105 -229 -11 -26 -21
-52 -21 -57 0 -6 -4 -11 -10 -11 -5 0 -10 -5 -10 -11 0 -11 -3 -19 -64 -152
-20 -42 -36 -81 -36 -86 0 -22 -111 -109 -153 -119 -60 -16 -791 -17 -832 -2
-16 6 -39 23 -49 37 -26 36 -33 120 -13 164 38 84 102 221 137 294 50 103 100
214 100 219 0 3 9 21 21 40 l21 36 128 0 c104 0 129 -3 134 -15z m1954 -11 c4
-26 -69 -180 -94 -199 -16 -12 -87 -14 -395 -15 l-377 0 -16 -25 c-15 -23 -15
-25 1 -25 10 0 147 -1 304 -3 l286 -2 36 -27 c39 -31 67 -78 67 -115 0 -14
-28 -80 -61 -149 -65 -131 -92 -163 -167 -196 -40 -18 -72 -19 -514 -18 -280
0 -476 4 -482 10 -6 6 9 46 41 107 l49 98 387 5 c344 4 388 7 403 22 9 9 14
24 11 32 -6 14 -42 16 -302 16 -318 0 -320 0 -367 55 -29 33 -24 119 11 190
16 33 39 80 50 105 11 25 39 63 61 85 74 73 76 73 600 71 464 -1 465 -1 468
-22z m-5068 -9 c0 -33 -75 -182 -97 -193 -10 -5 -137 -10 -283 -11 -251 -2
-290 -6 -290 -32 0 -4 -23 -57 -51 -116 -28 -59 -62 -133 -76 -163 -14 -30
-38 -82 -54 -116 -16 -33 -29 -65 -29 -70 -1 -5 -11 -21 -23 -37 -23 -27 -25
-27 -143 -29 -66 -1 -125 2 -132 6 -19 11 -15 31 22 109 89 189 116 247 146
312 95 207 123 256 171 299 27 24 66 48 86 54 22 6 193 10 396 11 l357 1 0
-25z m942 15 c54 -15 98 -72 98 -127 0 -24 -4 -51 -9 -61 -8 -15 -33 -69 -96
-207 -121 -269 -177 -348 -265 -374 -53 -16 -797 -17 -832 -1 -64 30 -87 132
-49 214 11 23 32 68 46 101 15 33 42 92 60 130 18 39 35 77 39 85 3 8 10 22
15 30 5 8 17 33 27 55 42 89 93 136 170 154 55 13 750 13 796 1z m1221 -20
c44 -30 57 -57 57 -116 0 -44 -8 -67 -76 -211 -19 -40 -50 -108 -70 -150 -20
-43 -58 -124 -86 -180 l-49 -103 -114 -2 c-63 -1 -123 -2 -132 -2 -30 -2 -27
40 8 112 85 179 119 253 149 317 17 39 36 78 41 87 26 49 25 49 -228 46 l-237
-3 -13 -25 c-7 -14 -34 -70 -59 -125 -25 -55 -56 -122 -69 -150 -13 -27 -44
-93 -68 -146 -25 -53 -51 -100 -57 -104 -7 -4 -69 -8 -139 -8 -160 -1 -156
-11 -71 168 16 33 42 89 58 125 16 36 49 106 72 155 23 50 50 108 60 130 68
149 85 182 98 198 15 17 43 18 452 15 l436 -3 37 -25z m531 -5 c-1 -16 -22
-73 -47 -125 -25 -52 -59 -124 -75 -160 -148 -324 -213 -459 -224 -466 -6 -4
-218 -8 -255 -5 -7 1 -13 10 -13 22 0 20 9 41 82 199 22 47 50 108 63 135 13
28 46 100 75 160 28 61 61 130 72 155 33 73 51 105 62 113 6 4 67 6 136 5
l125 -3 -1 -30z"/>
<path d="M3505 1340 l-70 -5 -22 -45 c-102 -211 -124 -262 -118 -280 6 -19 16
-20 233 -20 170 1 231 4 244 14 18 14 143 263 153 309 6 22 4 27 -11 27 -150
4 -354 4 -409 0z"/>
</g>
</svg>
