<?xml version="1.0" standalone="no"?>
<!DOCTYPE svg PUBLIC "-//W3C//DTD SVG 20010904//EN"
 "http://www.w3.org/TR/2001/REC-SVG-20010904/DTD/svg10.dtd">
<svg version="1.0" xmlns="http://www.w3.org/2000/svg"
 width="600.000000pt" height="600.000000pt" viewBox="0 0 600.000000 600.000000"
 preserveAspectRatio="xMidYMid meet">
<metadata>
Created by potrace 1.10, written by Peter Selinger 2001-2011
</metadata>
<g transform="translate(0.000000,600.000000) scale(0.100000,-0.100000)"
fill="#000000" stroke="none">
<path d="M2580 5775 c-372 -57 -766 -192 -1002 -342 -36 -24 -69 -43 -72 -43
-10 0 -164 -108 -256 -178 -172 -133 -283 -237 -399 -376 -107 -129 -231 -290
-231 -300 0 -2 -31 -53 -70 -113 -137 -214 -233 -442 -310 -738 -66 -257 -90
-447 -90 -715 0 -232 10 -321 45 -413 13 -36 23 -47 39 -47 35 1 97 35 166 91
36 29 162 126 280 216 222 168 460 351 495 381 11 9 49 38 85 63 58 41 252
192 305 237 11 10 38 31 60 47 22 17 99 76 170 131 143 111 415 318 625 476
74 56 192 147 261 202 285 228 684 523 710 525 4 1 40 21 80 45 145 87 370
132 452 90 91 -47 153 -124 189 -234 19 -57 22 -95 26 -300 3 -156 0 -266 -8
-325 -7 -50 -15 -180 -19 -290 -8 -252 -2 -241 -176 -335 -51 -28 -155 -87
-217 -125 -109 -66 -362 -208 -392 -220 -51 -22 -81 -13 -95 26 -6 19 -11 105
-11 203 0 179 -13 258 -43 264 -32 6 -155 -67 -225 -135 -7 -7 -40 -33 -73
-59 -33 -25 -140 -109 -238 -187 -98 -78 -258 -205 -356 -282 -98 -77 -183
-145 -189 -150 -6 -6 -42 -35 -81 -65 -38 -30 -72 -57 -75 -61 -3 -3 -52 -41
-110 -85 -57 -43 -133 -104 -167 -135 -35 -32 -94 -79 -131 -105 -37 -27 -123
-93 -191 -149 -68 -55 -183 -146 -255 -203 -72 -57 -140 -111 -151 -120 -11
-9 -78 -62 -150 -117 -170 -130 -245 -203 -245 -237 0 -23 23 -75 71 -158 22
-39 62 -91 207 -273 135 -168 172 -204 430 -415 70 -57 246 -182 257 -182 3 0
35 -19 72 -42 265 -162 632 -287 1013 -343 460 -69 1020 2 1446 184 118 50
374 184 455 238 300 199 582 468 772 737 53 75 97 139 97 141 0 3 19 35 42 72
167 272 311 679 352 993 18 134 36 314 43 417 6 79 -19 276 -44 356 -13 42
-18 47 -43 47 -36 0 -118 -55 -330 -225 -91 -72 -266 -207 -390 -300 -124 -92
-265 -200 -315 -240 -49 -39 -130 -102 -180 -140 -49 -38 -92 -72 -95 -75 -3
-3 -86 -68 -185 -143 -99 -76 -270 -207 -380 -291 -110 -85 -288 -221 -395
-302 -107 -81 -274 -209 -370 -284 -359 -278 -432 -327 -615 -415 -268 -128
-425 -113 -534 52 -62 93 -74 153 -79 398 -2 138 1 259 8 325 7 58 15 193 19
300 4 124 11 203 19 217 18 33 89 86 177 134 44 23 103 57 130 73 28 17 59 36
70 43 25 15 154 87 225 126 30 17 80 46 110 65 38 24 67 36 94 36 61 1 66 -16
67 -234 0 -146 4 -195 17 -232 l17 -46 51 21 c55 24 96 52 189 132 33 29 116
94 185 145 69 51 161 124 205 161 44 37 135 109 201 161 67 51 204 159 305
240 101 80 226 179 276 220 51 40 141 112 200 160 60 48 196 155 303 239 107
84 197 155 200 159 9 9 190 153 302 238 141 109 217 179 224 208 3 13 -1 42
-10 64 -19 48 -166 274 -247 380 -81 107 -397 415 -511 499 -53 39 -98 71
-101 71 -2 0 -46 28 -98 63 -84 56 -323 181 -454 237 -163 70 -370 126 -635
171 -162 27 -192 29 -415 28 -193 -1 -268 -6 -385 -24z"/>
</g>
</svg>
