<?xml version="1.0" standalone="no"?>
<svg version="1.0" xmlns="http://www.w3.org/2000/svg"
     width="58.000000pt" height="58.000000pt" viewBox="0 0 58.000000 58.000000"
     preserveAspectRatio="xMidYMid meet">
  <metadata>
    Created by potrace 1.15, written by Peter Selinger 2001-2017
  </metadata>
  <g transform="translate(0.000000,58.000000) scale(0.100000,-0.100000)"
     fill="#000000" stroke="none">
    <path d="M174 561 c-103 -47 -166 -140 -172 -254 -2 -37 -1 -67 3 -67 5 0 78
53 164 118 226 172 231 174 231 68 0 -63 -1 -64 -36 -85 -44 -26 -44 -26 -44
4 0 14 -3 25 -7 25 -13 0 -273 -210 -273 -220 0 -22 78 -94 132 -121 80 -40
156 -40 237 0 70 36 134 105 155 168 15 44 22 143 11 143 -3 0 -79 -56 -169
-124 -216 -164 -226 -167 -226 -61 l0 63 43 24 43 24 -4 -28 c-2 -15 0 -28 5
-28 11 0 277 207 281 220 5 14 -91 105 -133 125 -59 28 -187 32 -241 6z"/>
  </g>
</svg>
