<?xml version="1.0" standalone="no"?>
<!DOCTYPE svg PUBLIC "-//W3C//DTD SVG 20010904//EN"
 "http://www.w3.org/TR/2001/REC-SVG-20010904/DTD/svg10.dtd">
<svg version="1.0" xmlns="http://www.w3.org/2000/svg"
 width="900.000000pt" height="903.000000pt" viewBox="0 0 900.000000 903.000000"
 preserveAspectRatio="xMidYMid meet">
<metadata>
Created by potrace 1.10, written by Peter Selinger 2001-2011
</metadata>
<g transform="translate(0.000000,903.000000) scale(0.100000,-0.100000)"
fill="#000000" stroke="none">
<path d="M413 8582 c-13 -2 -23 -8 -23 -13 0 -10 62 -102 147 -219 49 -68 118
-165 293 -410 33 -47 95 -133 138 -193 42 -59 106 -148 142 -199 36 -50 86
-121 112 -157 26 -36 51 -73 55 -81 3 -8 12 -22 20 -30 7 -8 47 -62 88 -120
41 -58 100 -142 132 -187 32 -45 92 -129 133 -187 41 -57 103 -144 137 -193
35 -48 96 -135 137 -193 41 -58 95 -134 121 -170 25 -36 86 -121 135 -190 49
-69 116 -163 149 -210 33 -47 88 -123 121 -170 79 -111 189 -266 268 -376 35
-49 103 -145 152 -214 91 -129 127 -180 255 -360 41 -58 102 -143 135 -190
177 -247 219 -306 260 -366 25 -36 50 -71 55 -77 15 -17 148 -206 161 -229 7
-11 17 -25 23 -31 17 -17 13 -42 -9 -62 -20 -18 -23 -17 -113 27 -50 25 -108
49 -127 53 -19 4 -41 12 -49 19 -9 7 -73 11 -190 11 -144 -1 -183 -4 -215 -18
-21 -9 -45 -17 -53 -17 -24 0 -179 -79 -230 -118 -105 -80 -106 -81 -380 -456
-32 -44 -60 -84 -62 -90 -2 -6 -32 -48 -65 -94 -34 -45 -88 -121 -121 -168
-33 -47 -100 -141 -150 -210 -49 -68 -110 -154 -135 -190 -25 -36 -55 -79 -68
-97 -43 -59 -147 -205 -207 -291 -33 -47 -89 -126 -125 -175 -36 -50 -103
-145 -150 -211 -47 -67 -106 -150 -132 -185 -27 -35 -48 -67 -48 -70 0 -3 -5
-11 -11 -18 -12 -14 -131 -179 -157 -217 -9 -14 -36 -51 -59 -82 -24 -31 -43
-59 -43 -63 0 -3 -28 -44 -63 -90 -34 -47 -96 -133 -137 -191 -41 -59 -100
-141 -130 -183 -107 -146 -149 -209 -143 -215 4 -3 504 -6 1112 -6 1050 0
1109 1 1171 19 36 10 81 28 100 40 19 11 44 25 55 30 20 9 135 124 135 135 0
3 26 41 58 85 31 43 86 120 122 170 151 214 189 268 273 382 48 66 87 122 87
125 0 3 19 31 43 62 23 31 50 68 60 82 9 14 31 46 49 71 18 25 62 88 98 139
36 52 80 109 98 127 18 18 37 45 43 60 5 15 35 61 65 102 189 260 220 305 234
326 40 64 96 141 108 148 6 4 12 13 12 18 0 6 20 37 45 69 25 32 45 62 45 67
0 5 8 16 18 25 9 9 25 28 35 42 10 14 26 26 37 26 17 0 29 -12 72 -71 9 -13
37 -52 62 -87 25 -34 46 -65 46 -69 0 -3 7 -13 15 -22 9 -9 46 -59 82 -111 37
-52 96 -136 132 -187 36 -50 100 -139 141 -197 41 -58 102 -143 135 -189 33
-47 94 -132 135 -191 63 -89 123 -173 192 -268 7 -10 45 -63 83 -118 39 -55
98 -140 132 -188 35 -48 95 -133 135 -189 232 -326 276 -372 413 -429 l70 -29
1120 -3 c616 -1 1125 0 1132 3 14 5 3 23 -118 190 -61 85 -69 96 -224 316 -55
78 -117 165 -137 193 -21 28 -54 76 -75 106 -20 30 -63 91 -95 135 -97 135
-255 356 -420 589 -35 49 -89 124 -121 167 -31 44 -57 81 -57 84 0 3 -29 45
-65 93 -79 107 -98 133 -155 216 -25 36 -85 122 -135 190 -49 69 -117 163
-150 210 -33 47 -88 124 -122 171 -35 46 -63 87 -63 90 0 3 -28 44 -62 90 -35
46 -90 123 -123 170 -33 47 -66 93 -73 103 -6 9 -42 60 -79 112 -37 52 -97
138 -135 190 -37 52 -100 141 -140 197 -40 57 -101 141 -135 187 -35 47 -63
88 -63 90 0 3 -22 36 -50 73 -27 37 -61 84 -74 103 -14 19 -53 74 -88 123 -35
48 -94 133 -133 188 -38 55 -98 138 -132 184 -35 46 -63 87 -63 90 0 2 -34 50
-75 106 -41 55 -75 107 -75 115 0 23 43 16 81 -12 19 -14 79 -47 134 -74 197
-95 394 -105 625 -33 30 9 60 21 66 25 6 4 33 20 60 34 96 51 218 157 270 234
12 19 54 78 93 130 39 52 95 131 126 175 31 44 70 100 88 125 52 73 171 240
187 263 8 12 32 47 55 77 22 31 45 63 50 72 6 9 43 63 84 120 155 215 208 288
271 378 36 50 93 131 127 178 34 48 71 101 83 117 11 17 51 72 88 122 37 51
87 123 112 159 25 36 56 81 70 99 14 19 47 65 73 102 312 440 482 679 550 773
87 119 147 209 147 220 0 6 -10 10 -22 10 -202 4 -2177 -2 -2213 -7 -82 -10
-186 -65 -265 -139 -39 -37 -70 -70 -70 -75 0 -8 -122 -178 -166 -232 -8 -9
-14 -20 -14 -23 0 -2 -21 -34 -47 -70 -27 -35 -81 -110 -121 -167 -40 -56
-101 -142 -137 -192 -35 -49 -73 -103 -85 -120 -11 -16 -43 -60 -70 -97 -28
-37 -50 -70 -50 -73 0 -3 -7 -13 -16 -22 -8 -10 -37 -49 -64 -88 -81 -116 -89
-127 -143 -202 -29 -40 -90 -126 -137 -193 -47 -66 -107 -152 -135 -190 -27
-38 -88 -124 -135 -190 -47 -67 -106 -150 -133 -185 -26 -35 -47 -68 -47 -73
0 -6 -7 -13 -16 -16 -18 -7 -41 17 -99 98 -22 31 -79 112 -127 179 -48 67
-108 151 -133 187 -25 36 -83 117 -128 180 -45 64 -95 135 -112 158 -16 23
-45 64 -63 90 -19 26 -40 56 -48 67 -8 11 -37 52 -64 90 -27 39 -77 108 -110
155 -117 163 -236 329 -300 421 -36 50 -91 127 -122 170 -32 44 -58 81 -58 84
0 2 -29 44 -65 92 -35 48 -75 103 -87 122 -66 96 -167 188 -238 217 -8 3 -31
12 -50 19 -19 8 -60 17 -90 20 -56 6 -2157 13 -2197 7z"/>
</g>
</svg>
