<?xml version="1.0" standalone="no"?>
<!DOCTYPE svg PUBLIC "-//W3C//DTD SVG 20010904//EN"
 "http://www.w3.org/TR/2001/REC-SVG-20010904/DTD/svg10.dtd">
<svg version="1.0" xmlns="http://www.w3.org/2000/svg"
 width="300.000000pt" height="130.000000pt" viewBox="0 0 300.000000 130.000000"
 preserveAspectRatio="xMidYMid meet">
<metadata>
Created by potrace 1.10, written by Peter Selinger 2001-2011
</metadata>
<g transform="translate(0.000000,130.000000) scale(0.100000,-0.100000)"
fill="#000000" stroke="none">
<path d="M12 1253 c23 -27 608 -851 608 -857 0 -2 -34 -26 -75 -51 -41 -26
-75 -52 -74 -59 0 -7 2 -7 6 2 2 6 8 10 13 7 5 -3 16 2 25 11 9 9 18 14 21 12
4 -5 -94 -152 -148 -220 l-29 -37 -149 -3 c-102 -2 -153 -7 -162 -16 -18 -18
301 -18 325 1 9 6 70 87 135 179 l119 167 117 -164 c64 -91 127 -172 140 -180
19 -13 54 -15 194 -13 l171 3 -264 370 c-146 204 -285 398 -310 433 -25 35
-45 65 -45 67 0 2 32 23 70 46 67 40 91 59 73 59 -5 0 -19 -7 -31 -16 -31 -21
-37 -13 -14 17 10 13 45 62 77 109 86 126 71 118 231 123 77 2 150 7 164 11
23 7 24 6 7 -7 -10 -8 -94 -59 -187 -113 -173 -100 -229 -142 -79 -59 46 25
91 44 101 42 9 -3 17 -2 16 2 -2 18 3 31 12 31 6 0 29 12 51 26 23 14 40 22
38 17 -13 -28 -72 -113 -80 -113 -5 0 -9 -6 -9 -13 0 -8 -24 -46 -52 -85 -29
-39 -73 -99 -97 -132 -46 -63 -78 -93 -93 -84 -4 3 -8 1 -8 -5 0 -5 -12 -12
-27 -14 -21 -3 -18 -4 12 -5 23 -1 52 5 68 16 15 9 105 127 201 262 l173 245
-171 3 c-154 2 -173 1 -196 -16 -13 -10 -75 -90 -138 -177 -62 -88 -114 -160
-115 -161 -1 -1 -56 75 -122 168 -66 93 -128 174 -137 179 -9 5 -96 9 -194 9
-168 0 -176 -1 -162 -17z m335 -18 c12 -3 42 -34 69 -72 26 -38 50 -70 53 -73
3 -3 35 -48 71 -100 35 -52 70 -102 77 -110 17 -22 157 -218 238 -335 38 -55
73 -102 77 -103 5 -2 16 -18 25 -35 9 -18 52 -80 96 -139 43 -58 78 -110 77
-114 -1 -3 2 -10 7 -13 10 -8 53 -68 53 -76 0 -3 -67 -5 -149 -5 l-149 0 -49
68 c-28 37 -83 114 -124 172 -41 58 -84 119 -95 135 -12 17 -53 75 -90 130
-38 55 -96 137 -131 182 -34 46 -64 92 -68 103 -3 11 -10 20 -15 20 -5 0 -19
17 -31 38 -13 20 -31 46 -41 56 -10 11 -18 25 -18 31 0 7 -9 20 -20 30 -11 10
-18 21 -15 23 10 10 74 -60 68 -74 -3 -9 0 -12 9 -9 17 7 56 -36 50 -55 -3
-11 -1 -12 5 -2 7 9 30 -9 85 -65 84 -87 319 -316 473 -462 55 -53 -115 121
-378 384 l-477 480 147 -3 c82 -1 158 -5 170 -7z"/>
<path d="M990 277 c0 -2 15 -16 33 -33 l32 -29 -29 33 c-28 30 -36 37 -36 29z"/>
<path d="M1060 206 c0 -2 8 -10 18 -17 15 -13 16 -12 3 4 -13 16 -21 21 -21
13z"/>
<path d="M1103 950 c-36 -14 -56 -55 -49 -95 11 -55 42 -69 165 -75 l106 -5 0
-30 0 -30 -132 -3 -133 -3 0 -30 0 -31 141 4 c134 3 142 4 160 27 12 15 19 39
19 66 0 35 -5 48 -26 64 -23 18 -41 21 -123 21 -53 0 -102 4 -109 9 -8 4 -12
19 -10 32 3 24 5 24 131 27 l127 3 0 29 0 30 -122 -1 c-68 0 -133 -4 -145 -9z
m-1 -42 c-5 -7 -12 -24 -15 -38 l-4 -25 -2 26 c0 14 4 30 11 37 16 16 23 15
10 0z"/>
<path d="M1500 942 c-19 -9 -45 -33 -58 -52 -48 -71 -13 -194 64 -226 48 -20
161 -18 204 4 108 54 108 220 0 274 -47 24 -163 24 -210 0z m207 -66 c23 -20
28 -32 28 -71 0 -39 -5 -51 -28 -71 -24 -21 -38 -24 -101 -24 -85 0 -119 19
-130 70 -7 37 14 93 41 109 10 6 50 11 90 11 62 0 76 -3 100 -24z m43 2 c0 -6
-6 -5 -15 2 -8 7 -15 14 -15 16 0 2 7 1 15 -2 8 -4 15 -11 15 -16z"/>
<path d="M1830 805 l0 -155 136 0 135 0 -3 28 -3 27 -103 0 -102 0 0 128 0
127 -30 0 -30 0 0 -155z m50 -110 c10 -12 10 -15 -4 -15 -9 0 -16 7 -16 15 0
8 2 15 4 15 2 0 9 -7 16 -15z"/>
<path d="M2203 805 l-92 -155 32 0 c26 0 36 7 51 33 10 17 41 71 69 119 l50
88 14 -27 c8 -15 23 -42 34 -60 l21 -33 -48 0 c-33 0 -51 -5 -60 -17 -7 -10
-14 -20 -14 -23 0 -3 33 -4 72 -2 l73 3 23 -41 c19 -34 27 -40 56 -40 l34 0
-92 153 c-63 103 -99 153 -112 154 -15 2 -39 -30 -111 -152z m139 92 c10 -20
10 -21 -5 -8 -9 7 -24 11 -32 7 -18 -6 -20 5 -3 22 14 14 24 8 40 -21z m83
-138 c14 -26 14 -27 -9 -16 -16 8 -23 19 -23 39 0 30 5 27 32 -23z"/>
<path d="M2615 884 l80 -74 -85 -80 -85 -79 41 -1 c37 0 46 6 102 63 l61 64
63 -64 c56 -57 66 -63 103 -63 l40 1 -87 82 -86 83 31 22 c18 11 54 44 82 72
l49 50 -40 0 c-37 0 -47 -6 -97 -59 l-56 -58 -57 58 c-52 53 -63 59 -99 59
l-40 -1 80 -75z m41 4 l29 -33 -32 29 c-31 28 -38 36 -30 36 2 0 16 -15 33
-32z m84 -60 c8 2 12 1 8 -3 -4 -5 -3 -14 3 -22 9 -10 6 -13 -15 -11 -14 1
-24 7 -22 13 2 5 -4 19 -13 30 -15 19 -15 19 4 4 11 -9 27 -14 35 -11z m89
-106 c7 -7 11 -15 9 -17 -2 -3 -18 10 -34 27 -26 29 -9 22 25 -10z"/>
<path d="M1610 485 c0 -98 1 -105 20 -105 18 0 20 7 20 85 l0 85 69 0 c59 0
71 -3 76 -19 12 -39 -4 -51 -66 -51 -52 0 -59 -2 -59 -20 0 -18 7 -20 59 -20
75 0 102 20 104 74 2 61 -25 76 -134 76 l-89 0 0 -105z"/>
<path d="M1887 566 c-54 -50 -41 -138 25 -172 49 -25 135 -15 165 20 44 51 42
109 -4 152 -22 20 -36 24 -93 24 -57 0 -71 -4 -93 -24z m167 -38 c40 -56 4
-108 -74 -108 -78 0 -114 52 -74 108 13 18 25 22 74 22 49 0 61 -4 74 -22z"/>
<path d="M2148 486 c35 -64 63 -106 73 -106 8 0 23 17 33 37 l18 38 19 -38
c11 -20 25 -37 32 -37 7 0 30 33 51 73 21 39 48 87 58 105 l20 32 -24 0 c-19
0 -31 -15 -64 -79 l-41 -79 -38 79 c-32 65 -43 79 -62 79 l-23 0 26 -51 c23
-47 24 -53 11 -81 l-14 -30 -41 79 c-32 63 -45 79 -65 81 -25 3 -24 0 31 -102z"/>
<path d="M2470 485 l0 -105 95 0 c88 0 95 1 95 20 0 18 -7 20 -77 20 l-78 0 3
65 4 65 74 0 c67 0 74 2 74 20 0 19 -7 20 -95 20 l-95 0 0 -105z"/>
<path d="M2688 485 c3 -91 6 -105 20 -105 15 0 17 11 13 85 l-3 86 73 -3 74
-3 3 -32 c3 -28 -1 -33 -22 -39 -15 -3 -42 -4 -61 -2 -29 3 -35 1 -35 -14 0
-14 8 -18 38 -18 29 0 45 -7 67 -30 17 -18 39 -30 54 -30 l25 0 -32 33 c-31
32 -32 33 -12 50 27 23 27 80 0 107 -17 17 -33 20 -112 20 l-93 0 3 -105z"/>
<path d="M385 545 c-18 -9 -57 -54 -95 -108 -35 -50 -115 -163 -177 -249 -61
-87 -110 -158 -107 -158 2 0 28 15 57 34 28 19 116 71 195 116 79 45 141 84
139 86 -2 3 -32 -11 -65 -30 -34 -19 -70 -37 -81 -41 -12 -3 -21 -11 -21 -16
0 -6 -9 -7 -20 -4 -13 4 -19 2 -18 -4 2 -6 -21 -25 -49 -42 -29 -17 -53 -28
-53 -25 0 6 69 106 80 116 3 3 31 43 62 90 140 207 150 219 218 238 l35 10
-35 1 c-19 0 -48 -6 -65 -14z"/>
<path d="M2530 490 c0 -18 7 -20 60 -20 53 0 60 2 60 20 0 18 -7 20 -60 20
-53 0 -60 -2 -60 -20z"/>
</g>
</svg>
