<?xml version="1.0" standalone="no"?>
<!DOCTYPE svg PUBLIC "-//W3C//DTD SVG 20010904//EN"
 "http://www.w3.org/TR/2001/REC-SVG-20010904/DTD/svg10.dtd">
<svg version="1.0" xmlns="http://www.w3.org/2000/svg"
 width="900.000000pt" height="126.000000pt" viewBox="0 0 900.000000 126.000000"
 preserveAspectRatio="xMidYMid meet">
<metadata>
Created by potrace 1.10, written by Peter Selinger 2001-2011
</metadata>
<g transform="translate(0.000000,126.000000) scale(0.100000,-0.100000)"
fill="#000000" stroke="none">
<path d="M6910 1246 c0 -15 -21 -26 -52 -26 -11 0 -34 -6 -51 -14 -18 -8 -39
-17 -47 -20 -57 -25 -166 -110 -212 -167 -89 -109 -138 -250 -138 -395 1 -51
7 -106 15 -129 8 -22 15 -46 15 -53 0 -24 59 -132 104 -190 52 -69 126 -126
216 -169 101 -48 127 -55 242 -60 111 -6 158 3 273 49 117 48 239 163 297 279
54 109 68 168 68 278 0 191 -74 351 -217 471 -72 60 -188 120 -232 120 -12 0
-30 9 -41 20 -18 18 -33 20 -130 20 -87 0 -110 -3 -110 -14z m340 -186 c0 -21
-52 -190 -77 -247 -7 -17 -13 -38 -13 -47 0 -8 -7 -31 -16 -50 -29 -59 -18
-66 96 -66 118 0 123 -7 53 -67 -27 -23 -100 -85 -164 -139 -63 -55 -139 -119
-169 -144 -29 -25 -74 -64 -99 -87 -25 -22 -49 -39 -53 -37 -13 8 -9 50 7 80
8 16 15 37 15 46 0 10 6 32 14 50 32 74 79 236 73 252 -5 13 -23 16 -107 16
-108 0 -120 7 -73 44 15 11 75 62 134 111 58 50 130 110 159 135 29 25 72 61
94 81 88 78 101 88 114 89 6 0 12 -9 12 -20z"/>
<path d="M8219 1204 c-5 -6 -10 -214 -11 -465 l-3 -454 -58 1 c-98 2 -92 -31
-95 480 l-3 445 -152 -3 -152 -3 -3 -435 c-3 -459 2 -546 40 -607 24 -41 61
-67 124 -90 44 -16 90 -18 454 -18 368 0 410 2 463 19 67 21 137 80 137 115 0
14 7 25 20 28 20 5 20 14 20 499 l0 494 -160 0 -160 0 -1 -422 c0 -300 -4
-433 -12 -458 -11 -31 -17 -36 -59 -44 -33 -6 -56 -6 -73 2 l-25 12 0 454 0
455 -141 3 c-93 2 -144 -1 -150 -8z"/>
<path d="M4075 1196 c-45 -16 -80 -47 -104 -91 -20 -39 -21 -52 -21 -477 0
-404 1 -441 18 -472 24 -44 40 -59 87 -82 37 -18 68 -19 455 -19 454 0 452 0
513 61 45 44 50 82 54 345 4 232 3 247 -15 270 l-20 24 -259 0 -258 0 0 -100
0 -100 100 -5 100 -5 3 -123 3 -122 -28 -11 c-17 -6 -98 -9 -206 -7 -174 3
-179 4 -198 27 -18 22 -19 43 -19 320 l0 298 26 24 26 24 351 5 352 5 0 110 0
110 -465 1 c-326 1 -474 -2 -495 -10z"/>
<path d="M5227 1203 c-4 -3 -7 -262 -7 -574 l0 -569 23 -5 c12 -3 90 -4 172
-3 l150 3 5 460 5 460 160 3 c132 2 165 0 190 -14 52 -28 70 -62 70 -131 0
-57 -3 -65 -33 -95 l-32 -33 -128 -3 c-82 -3 -129 -8 -134 -15 -11 -18 -10
-85 2 -92 6 -4 17 -21 25 -38 8 -18 29 -59 48 -92 18 -33 51 -91 72 -130 21
-38 41 -74 45 -80 4 -5 24 -40 43 -77 54 -101 61 -112 72 -120 15 -11 353 -10
360 2 3 5 -5 26 -18 47 -24 39 -57 97 -119 213 -19 36 -45 81 -57 100 -30 50
-27 65 23 94 121 71 190 237 161 391 -20 109 -62 179 -145 240 -86 63 -100 65
-546 65 -220 0 -404 -3 -407 -7z"/>
<path d="M307 1185 c-65 -14 -115 -48 -158 -108 -26 -36 -29 -48 -29 -115 0
-56 5 -87 21 -119 21 -42 115 -137 153 -154 23 -10 58 -31 66 -39 13 -14 162
-110 169 -110 5 0 11 -3 13 -8 3 -8 155 -112 164 -112 3 0 21 -12 40 -26 44
-34 46 -72 5 -97 -26 -15 -64 -17 -330 -17 l-301 0 0 -110 0 -110 410 0 c342
0 417 2 447 15 19 8 43 15 52 15 25 0 107 75 130 120 26 51 30 170 6 190 -8 7
-15 20 -15 29 0 18 -63 91 -79 91 -6 0 -11 5 -11 10 0 6 -8 14 -17 18 -10 4
-51 30 -91 57 -40 28 -81 55 -90 60 -9 6 -45 29 -80 53 -35 23 -68 42 -73 42
-5 0 -9 5 -9 10 0 6 -10 15 -22 20 -24 10 -59 31 -68 40 -3 3 -24 18 -47 34
-37 25 -43 34 -43 64 0 61 3 61 323 62 l288 0 -3 103 -3 102 -380 1 c-273 1
-396 -2 -438 -11z"/>
<path d="M1293 803 c4 -448 5 -456 83 -595 17 -28 77 -87 90 -88 6 0 17 -7 24
-15 7 -8 20 -15 30 -15 10 0 23 -7 30 -15 7 -8 23 -15 35 -15 12 0 39 -7 58
-15 51 -21 410 -21 447 0 14 8 34 14 46 15 11 0 41 11 65 25 24 13 53 29 64
34 61 30 124 123 156 231 9 33 14 151 16 448 l4 402 -171 0 -170 0 0 -398 c0
-376 -1 -400 -20 -436 -25 -50 -59 -86 -80 -86 -9 0 -25 -7 -36 -15 -13 -9
-44 -14 -94 -15 -63 0 -85 5 -130 27 -47 24 -59 36 -82 83 l-27 55 0 393 -1
392 -170 0 -171 0 4 -397z"/>
<path d="M2628 1188 c-2 -7 -4 -263 -3 -568 l1 -555 162 -3 162 -2 0 344 c0
289 2 345 14 349 14 5 52 -36 69 -73 4 -8 16 -28 27 -45 11 -16 24 -39 30 -50
13 -24 27 -46 63 -102 15 -24 27 -47 27 -53 0 -5 4 -10 9 -10 5 0 13 -10 17
-22 4 -13 19 -39 34 -58 15 -19 30 -42 33 -50 4 -8 16 -28 27 -45 11 -16 24
-39 30 -50 15 -30 32 -56 64 -98 l28 -37 172 2 171 3 0 565 0 565 -157 3 -158
3 0 -340 c0 -274 -3 -341 -14 -350 -10 -9 -19 -4 -38 21 -13 18 -28 40 -31 48
-4 8 -16 29 -27 45 -11 17 -23 37 -27 45 -4 8 -18 31 -31 50 -13 19 -28 44
-33 55 -10 23 -22 42 -61 98 -16 22 -28 46 -28 52 0 7 -7 15 -15 19 -8 3 -15
12 -15 19 0 8 -13 32 -28 53 -16 21 -31 46 -35 54 -4 8 -16 29 -27 45 -11 17
-23 37 -27 45 -16 36 -36 39 -209 40 -129 0 -173 -3 -176 -12z"/>
</g>
</svg>
