<?xml version="1.0" standalone="no"?>
<!DOCTYPE svg PUBLIC "-//W3C//DTD SVG 20010904//EN"
 "http://www.w3.org/TR/2001/REC-SVG-20010904/DTD/svg10.dtd">
<svg version="1.0" xmlns="http://www.w3.org/2000/svg"
 width="501.000000pt" height="612.000000pt" viewBox="0 0 501.000000 612.000000"
 preserveAspectRatio="xMidYMid meet">
<metadata>
Created by potrace 1.10, written by Peter Selinger 2001-2011
</metadata>
<g transform="translate(0.000000,612.000000) scale(0.100000,-0.100000)"
fill="#000000" stroke="none">
<path d="M2050 5709 c-63 -4 -237 -12 -386 -18 -235 -9 -369 -22 -462 -47 -10
-3 -12 -19 -8 -61 3 -32 8 -350 11 -708 3 -357 10 -720 15 -805 13 -227 20
-510 31 -1320 5 -399 14 -833 19 -965 5 -132 9 -465 10 -741 1 -275 5 -505 8
-511 4 -5 57 -13 117 -17 61 -3 128 -11 150 -17 22 -6 137 -14 255 -19 118 -5
247 -13 285 -19 88 -13 756 -14 850 -1 39 6 169 13 290 16 125 3 246 12 280
19 33 8 81 16 107 20 26 3 49 12 52 20 14 38 26 358 31 890 3 325 11 660 16
745 5 85 14 475 19 867 4 392 11 717 14 722 3 5 10 269 16 587 11 613 26 1156
36 1239 5 40 2 55 -13 72 -17 21 -31 23 -248 33 -126 6 -277 15 -335 20 -124
11 -995 10 -1160 -1z m665 -821 c33 -8 77 -22 97 -31 21 -9 40 -17 43 -17 21
0 191 -130 226 -172 24 -29 52 -60 61 -68 21 -18 98 -167 98 -190 0 -9 7 -25
15 -36 8 -10 15 -34 15 -53 0 -18 7 -61 16 -94 9 -35 14 -83 11 -112 -7 -81
-28 -188 -42 -220 -8 -16 -17 -41 -20 -55 -6 -24 -30 -75 -60 -130 -32 -57
-176 -198 -244 -239 -38 -22 -75 -41 -82 -41 -7 0 -20 -6 -28 -14 -9 -8 -49
-26 -90 -40 -67 -24 -89 -26 -224 -26 -136 0 -158 3 -225 26 -41 14 -81 32
-89 40 -8 8 -22 14 -32 14 -27 0 -151 86 -199 138 -105 113 -182 234 -182 287
0 12 -7 28 -15 35 -9 7 -15 29 -15 55 0 23 -7 64 -15 91 -19 62 -19 137 0 189
8 22 14 60 15 85 0 25 7 54 15 64 8 11 15 27 15 35 1 9 9 34 20 56 11 22 19
44 20 48 0 12 45 71 109 145 54 63 230 192 262 192 8 0 23 6 34 14 11 7 43 17
70 20 28 4 57 12 65 17 22 14 285 4 355 -13z m360 -1878 c22 -17 49 -47 62
-68 22 -36 22 -44 22 -287 l0 -250 -33 -45 c-18 -25 -47 -55 -66 -67 l-33 -23
-514 0 c-558 0 -540 -2 -594 57 -57 61 -59 72 -59 328 0 178 3 244 14 269 14
33 73 99 98 109 7 3 250 6 539 6 l526 1 38 -30z"/>
<path d="M2425 4618 c-10 -6 -39 -15 -62 -19 -24 -5 -55 -17 -70 -27 -16 -10
-51 -34 -79 -53 -48 -32 -144 -137 -144 -158 0 -5 -6 -14 -14 -20 -8 -7 -18
-31 -21 -54 -4 -23 -13 -67 -21 -97 -15 -57 -13 -90 12 -200 24 -104 50 -145
155 -251 34 -33 153 -99 179 -99 7 0 43 -9 81 -21 l69 -21 67 21 c36 12 73 21
81 21 8 0 48 17 89 37 56 27 88 52 122 92 25 30 54 61 64 70 9 8 17 22 17 30
0 8 6 22 14 30 22 24 40 126 40 221 0 95 -18 197 -40 221 -8 8 -14 19 -14 22
0 20 -97 127 -142 156 -29 19 -66 43 -81 53 -16 11 -45 22 -65 25 -20 3 -49
12 -64 19 -33 17 -145 18 -173 2z"/>
<path d="M4216 5508 c-3 -35 -8 -200 -11 -368 -3 -168 -10 -379 -15 -470 -5
-91 -12 -451 -15 -800 -3 -349 -13 -751 -21 -894 -8 -142 -14 -410 -15 -595 0
-342 -13 -1111 -25 -1503 -4 -128 -3 -218 2 -218 26 1 264 273 264 302 0 5 9
21 20 35 19 24 20 41 20 287 0 143 7 356 14 471 8 116 17 415 21 665 3 250 11
527 16 615 5 88 14 414 19 725 5 311 14 644 19 740 5 96 11 303 13 460 l3 285
-34 60 c-19 33 -62 87 -95 120 -34 33 -68 69 -76 80 -17 23 -75 65 -89 65 -5
0 -12 -28 -15 -62z"/>
<path d="M661 5452 c-48 -49 -105 -117 -126 -151 l-38 -63 2 -286 c1 -158 8
-426 16 -597 8 -170 15 -445 16 -610 1 -165 5 -372 9 -460 4 -88 13 -423 19
-745 6 -322 18 -675 26 -785 8 -110 15 -317 15 -460 0 -292 -5 -268 85 -405
47 -73 192 -224 197 -206 6 23 -10 938 -20 1136 -6 113 -13 484 -17 825 -3
341 -8 634 -10 650 -12 77 -26 640 -35 1345 -10 815 -13 900 -37 900 -8 0 -54
-40 -102 -88z"/>
</g>
</svg>
