<?xml version="1.0" standalone="no"?>
<!DOCTYPE svg PUBLIC "-//W3C//DTD SVG 20010904//EN"
 "http://www.w3.org/TR/2001/REC-SVG-20010904/DTD/svg10.dtd">
<svg version="1.0" xmlns="http://www.w3.org/2000/svg"
 width="300.000000pt" height="300.000000pt" viewBox="0 0 300.000000 300.000000"
 preserveAspectRatio="xMidYMid meet">
<metadata>
Created by potrace 1.10, written by Peter Selinger 2001-2011
</metadata>
<g transform="translate(0.000000,300.000000) scale(0.100000,-0.100000)"
fill="#000000" stroke="none">
<path d="M1090 2501 c-69 -22 -124 -66 -210 -169 -32 -37 -50 -66 -44 -71 5
-5 91 -18 190 -31 167 -20 184 -21 212 -6 40 21 207 255 192 270 -12 12 -305
19 -340 7z"/>
<path d="M1493 2463 c-16 -21 -58 -79 -93 -130 -60 -88 -62 -93 -47 -116 14
-21 31 -25 236 -51 122 -15 232 -25 245 -22 49 12 78 50 142 184 36 75 61 139
57 143 -11 11 -96 17 -324 24 l-187 6 -29 -38z"/>
<path d="M2103 2459 c-6 -8 -41 -74 -77 -148 l-65 -134 20 -29 c11 -15 21 -28
22 -28 1 0 70 -10 152 -21 228 -31 393 -36 469 -13 77 23 159 98 175 159 12
48 24 129 25 170 l1 30 -130 6 c-379 19 -580 22 -592 8z"/>
<path d="M851 2179 c-86 -17 -135 -55 -269 -206 -60 -69 -62 -72 -42 -83 12
-6 31 -13 43 -15 57 -11 234 -57 253 -67 33 -16 99 -14 126 4 28 19 218 289
218 311 0 26 -23 34 -135 46 -60 7 -119 14 -130 16 -11 2 -40 -1 -64 -6z"/>
<path d="M1286 2106 c-15 -7 -49 -43 -75 -80 -25 -36 -72 -104 -104 -150 -51
-72 -57 -87 -48 -105 6 -11 19 -25 29 -29 9 -5 119 -35 244 -67 l227 -58 46
18 c46 17 46 17 131 188 79 158 84 172 73 199 -6 16 -15 31 -20 33 -4 3 -59
12 -121 20 -62 8 -149 19 -193 26 -124 18 -158 18 -189 5z"/>
<path d="M1925 2017 c-44 -25 -47 -30 -143 -235 l-62 -132 20 -41 c12 -22 31
-44 43 -49 12 -5 121 -35 242 -67 199 -52 230 -57 325 -57 132 -1 187 21 260
101 54 59 73 109 86 218 3 33 10 65 15 71 17 21 22 99 8 110 -11 9 -707 106
-744 104 -5 0 -28 -11 -50 -23z"/>
<path d="M490 1783 c-66 -29 -124 -79 -236 -208 -90 -102 -111 -132 -101 -141
10 -11 194 -99 373 -180 l51 -23 25 37 c13 20 84 122 158 226 165 234 165 222
-15 272 -130 36 -201 41 -255 17z"/>
<path d="M984 1655 c-26 -12 -58 -49 -99 -117 -10 -17 -210 -303 -228 -325 -7
-10 12 -23 74 -52 102 -47 242 -113 409 -192 69 -32 131 -59 137 -59 6 0 70
120 143 268 109 221 130 272 125 298 -8 43 -40 69 -110 86 -33 9 -135 37 -228
62 -92 25 -173 46 -180 45 -6 0 -26 -7 -43 -14z"/>
<path d="M1695 1455 c-57 -28 -49 -15 -212 -363 -58 -123 -102 -230 -99 -237
3 -8 29 -25 58 -38 29 -14 103 -48 163 -77 436 -206 456 -214 582 -213 72 0
91 4 147 32 133 65 181 154 238 439 21 109 37 208 36 222 -2 19 -12 28 -38 36
-27 9 -744 202 -810 219 -8 2 -37 -7 -65 -20z"/>
</g>
</svg>
